<?xml version="1.0" encoding="utf-8"?>
<!-- Generator: Adobe Illustrator 27.9.5, SVG Export Plug-In . SVG Version: 9.03 Build 54986)  -->
<svg version="1.1" id="_レイヤー_2" xmlns="http://www.w3.org/2000/svg" xmlns:xlink="http://www.w3.org/1999/xlink" x="0px"
	 y="0px" viewBox="0 0 210 149.3" style="enable-background:new 0 0 210 149.3;" xml:space="preserve">
<style type="text/css">
	.st0{fill:none;}
	.st1{fill:url(#SVGID_1_);}
	.st2{fill:#FFFFFF;}
	.st3{fill:url(#SVGID_00000142893909995629497040000004350894113288669095_);}
	.st4{fill-rule:evenodd;clip-rule:evenodd;fill:#16787D;}
	.st5{fill-rule:evenodd;clip-rule:evenodd;fill:#0F6389;}
	.st6{fill-rule:evenodd;clip-rule:evenodd;fill:url(#SVGID_00000112629486066755668360000003977276523432338063_);}
	.st7{fill-rule:evenodd;clip-rule:evenodd;fill:url(#SVGID_00000123401532750120936690000007769125831798877827_);}
	.st8{fill-rule:evenodd;clip-rule:evenodd;fill:url(#SVGID_00000170272135747528928090000010092657899504939907_);}
	.st9{fill-rule:evenodd;clip-rule:evenodd;fill:url(#SVGID_00000109030553151042944970000004673854101984407951_);}
	.st10{fill-rule:evenodd;clip-rule:evenodd;fill:url(#SVGID_00000026857852712488717410000000606228510599175300_);}
	.st11{fill-rule:evenodd;clip-rule:evenodd;fill:url(#SVGID_00000070101317133408142270000011618131710251155886_);}
	.st12{fill-rule:evenodd;clip-rule:evenodd;fill:#FFFFFF;}
</style>
<g id="_レイヤー_1-2">
	<g>
		<rect y="0" class="st0" width="210" height="149.3"/>
		<g>
			<g>
				<g>
					<g>
						
							<linearGradient id="SVGID_1_" gradientUnits="userSpaceOnUse" x1="105.01" y1="28.3198" x2="105.01" y2="40.4398" gradientTransform="matrix(1 0 0 -1 0 149.8898)">
							<stop  offset="0" style="stop-color:#080102"/>
							<stop  offset="1" style="stop-color:#227188"/>
						</linearGradient>
						<path class="st1" d="M126,119.9l-6.6-9.7c-0.3-0.5-0.9-0.8-1.4-0.8H92c-0.6,0-1.1,0.3-1.4,0.8l-6.6,9.7
							c-0.3,0.4-0.6,0.9-0.7,1.7h43.4C126.6,120.8,126.3,120.3,126,119.9L126,119.9z"/>
						<path class="st2" d="M127.2,122.1H82.8l0.1-0.6c0.1-0.9,0.5-1.6,0.8-1.9l6.6-9.7c0.4-0.6,1.1-1,1.9-1H118c0.8,0,1.4,0.4,1.9,1
							l6.6,9.7c0.2,0.3,0.7,1,0.8,1.9L127.2,122.1L127.2,122.1z M83.9,121.1h42.2c-0.1-0.3-0.3-0.6-0.5-0.9l-6.6-9.7
							c-0.2-0.3-0.6-0.6-1-0.6H92c-0.4,0-0.8,0.2-1,0.6l-6.6,9.7C84.2,120.5,84,120.8,83.9,121.1L83.9,121.1z"/>
					</g>
					<g>
						
							<linearGradient id="SVGID_00000142873398961525966690000013705210939438030213_" gradientUnits="userSpaceOnUse" x1="104.995" y1="5.8098" x2="104.995" y2="28.3098" gradientTransform="matrix(1 0 0 -1 0 149.8898)">
							<stop  offset="0" style="stop-color:#080102"/>
							<stop  offset="1" style="stop-color:#227188"/>
						</linearGradient>
						<path style="fill:url(#SVGID_00000142873398961525966690000013705210939438030213_);" d="M83.3,121.6c0,0.1,0,0.2,0,0.2v21
							c0,0.7,0.6,1.3,1.3,1.3h40.8c0.7,0,1.3-0.6,1.3-1.3v-20.9c0-0.1,0-0.2,0-0.2L83.3,121.6L83.3,121.6z"/>
						<path class="st2" d="M125.4,144.6H84.6c-1,0-1.8-0.8-1.8-1.8v-20.9c0-0.1,0-0.2,0-0.2l0.1-0.4l0.4-0.1h43.8l0,0.4
							c0,0.1,0,0.2,0,0.3v21C127.2,143.8,126.4,144.6,125.4,144.6L125.4,144.6z M83.8,122.1v20.7c0,0.4,0.4,0.8,0.8,0.8h40.8
							c0.4,0,0.8-0.4,0.8-0.8v-20.7H83.8z"/>
					</g>
				</g>
				<rect x="91.2" y="109.5" class="st2" width="1" height="12"/>
				<rect x="118.1" y="109.5" class="st2" width="1" height="12"/>
			</g>
			<path class="st4" d="M78.1,49.6c-3.9-3.9-10.2-3.9-14.1,0s-3.9,10.2,0,14.1c3.4,3.4,8.7,3.8,12.6,1.3c0,0,0,0,0,0
				c0.5-0.2,2.2-0.3,2.2-0.3c0.1,0,0.2-0.2,0.3-0.3c0,0,0.2-1.7,0.3-2.2c0,0,0,0,0,0C81.9,58.3,81.5,53,78.1,49.6L78.1,49.6z"/>
			<path class="st5" d="M146.1,63.8c3.9-3.9,3.9-10.2,0-14.1s-10.2-3.9-14.1,0c-3.4,3.4-3.8,8.7-1.3,12.5c0,0,0,0,0,0
				c0.2,0.5,0.3,2.2,0.3,2.2c0,0.1,0.1,0.2,0.3,0.3c0,0,1.7,0.2,2.2,0.3c0,0,0,0,0,0C137.4,67.6,142.7,67.2,146.1,63.8L146.1,63.8z"
				/>
			
				<linearGradient id="SVGID_00000065062584348813992730000003000758679265593010_" gradientUnits="userSpaceOnUse" x1="154.7508" y1="110.1893" x2="205.7613" y2="110.1893" gradientTransform="matrix(1 0 0 -1 0 149.8898)">
				<stop  offset="0" style="stop-color:#1A2855"/>
				<stop  offset="1" style="stop-color:#073865"/>
			</linearGradient>
			<path style="fill-rule:evenodd;clip-rule:evenodd;fill:url(#SVGID_00000065062584348813992730000003000758679265593010_);" d="
				M196.6,59.2c10.8-9,12.2-25.1,3.1-35.9c-9.1-10.8-25.1-12.2-35.9-3.1c-9.4,7.9-11.7,21.2-6.1,31.6c0,0,0,0.1,0,0.1
				c0.3,1.3,0.4,5.7,0.4,5.7c0.1,0.3,0.3,0.6,0.6,0.7c0,0,4.4,0.8,5.6,1.3c0,0,0.1,0,0.1,0C173.8,67.1,187.2,67.1,196.6,59.2
				L196.6,59.2z"/>
			
				<linearGradient id="SVGID_00000065074158224631233690000017788268887014025859_" gradientUnits="userSpaceOnUse" x1="80" y1="118.6573" x2="130" y2="118.6573" gradientTransform="matrix(1 0 0 -1 0 149.8898)">
				<stop  offset="0" style="stop-color:#00515E"/>
				<stop  offset="1" style="stop-color:#1A2855"/>
			</linearGradient>
			<path style="fill-rule:evenodd;clip-rule:evenodd;fill:url(#SVGID_00000065074158224631233690000017788268887014025859_);" d="
				M130,29.8c0-13.8-11.2-25-25-25s-25,11.2-25,25c0,12.1,8.5,22.1,19.9,24.5c0,0,0.1,0,0.1,0c1.1,0.6,4.5,3.3,4.5,3.3
				c0.3,0.1,0.7,0.1,0.9,0c0,0,3.4-2.8,4.5-3.3c0,0,0.1,0,0.1,0C121.5,51.9,130,41.8,130,29.8z"/>
			
				<linearGradient id="SVGID_00000150801832418021324230000000983587575540520842_" gradientUnits="userSpaceOnUse" x1="4.2428" y1="110.1854" x2="55.2492" y2="110.1854" gradientTransform="matrix(1 0 0 -1 0 149.8898)">
				<stop  offset="0" style="stop-color:#0C785F"/>
				<stop  offset="1" style="stop-color:#00515E"/>
			</linearGradient>
			<path style="fill-rule:evenodd;clip-rule:evenodd;fill:url(#SVGID_00000150801832418021324230000000983587575540520842_);" d="
				M46.1,20.2c-10.8-9.1-26.9-7.6-35.9,3.1c-9.1,10.8-7.7,26.9,3.1,35.9c9.4,7.9,22.9,7.8,32.2,0.5c0,0,0.1,0,0.1,0
				c1.2-0.5,5.6-1.3,5.6-1.3c0.3-0.1,0.5-0.4,0.6-0.7c0,0,0.1-4.5,0.4-5.7c0,0,0-0.1,0-0.1C57.8,41.3,55.6,28.1,46.1,20.2z"/>
			
				<linearGradient id="SVGID_00000089534448508236027540000013187776327624704431_" gradientUnits="userSpaceOnUse" x1="15.2773" y1="50.0798" x2="68.8908" y2="50.0798" gradientTransform="matrix(1 0 0 -1 0 149.8898)">
				<stop  offset="0" style="stop-color:#16787D"/>
				<stop  offset="1" style="stop-color:#19779A"/>
			</linearGradient>
			<path style="fill-rule:evenodd;clip-rule:evenodd;fill:url(#SVGID_00000089534448508236027540000013187776327624704431_);" d="
				M45.2,74.7c-13.9-2.4-27.1,6.8-29.5,20.7c-2.4,13.9,6.8,27.1,20.7,29.5c12.1,2.1,23.7-4.7,28.1-15.7c0,0,0.1-0.1,0.1-0.1
				c0.8-1,4.2-4,4.2-4c0.2-0.3,0.3-0.6,0.2-0.9c0,0-2.2-3.9-2.5-5.1c0,0,0-0.1,0-0.1C65.9,87.2,57.3,76.8,45.2,74.7L45.2,74.7z"/>
			
				<linearGradient id="SVGID_00000037670593955506764970000007093816862525646977_" gradientUnits="userSpaceOnUse" x1="141.1148" y1="50.08" x2="194.723" y2="50.08" gradientTransform="matrix(1 0 0 -1 0 149.8898)">
				<stop  offset="0" style="stop-color:#0F6389"/>
				<stop  offset="1" style="stop-color:#004A78"/>
			</linearGradient>
			<path style="fill-rule:evenodd;clip-rule:evenodd;fill:url(#SVGID_00000037670593955506764970000007093816862525646977_);" d="
				M173.6,124.9c13.9-2.4,23.1-15.7,20.7-29.5c-2.4-13.9-15.7-23.1-29.5-20.7c-12.1,2.1-20.7,12.5-21.1,24.3c0,0,0,0.1,0,0.1
				c-0.4,1.2-2.5,5.1-2.5,5.1c-0.1,0.3,0,0.7,0.2,0.9c0,0,3.4,2.9,4.1,4c0,0,0.1,0.1,0.1,0.1C149.9,120.3,161.5,127.1,173.6,124.9
				L173.6,124.9z"/>
			
				<linearGradient id="SVGID_00000160909357251508560720000013062516478426873780_" gradientUnits="userSpaceOnUse" x1="105" y1="33.3473" x2="105" y2="87.3798" gradientTransform="matrix(1 0 0 -1 0 149.8898)">
				<stop  offset="0" style="stop-color:#5699B2"/>
				<stop  offset="1" style="stop-color:#0F6389"/>
			</linearGradient>
			<path style="fill-rule:evenodd;clip-rule:evenodd;fill:url(#SVGID_00000160909357251508560720000013062516478426873780_);" d="
				M130.5,88c0-14.1-11.4-25.5-25.5-25.5S79.5,73.9,79.5,88c0,12.3,8.7,22.6,20.3,25c0,0,0.1,0,0.1,0.1c1.2,0.6,4.6,3.4,4.6,3.4
				c0.3,0.2,0.7,0.2,1,0c0,0,3.5-2.8,4.6-3.4c0,0,0.1,0,0.1-0.1C121.8,110.6,130.5,100.3,130.5,88z"/>
			<g>
				<circle class="st2" cx="67.7" cy="56.7" r="0.7"/>
				<circle class="st2" cx="71.1" cy="56.7" r="0.7"/>
				<circle class="st2" cx="74.3" cy="56.7" r="0.7"/>
			</g>
			<g>
				<circle class="st2" cx="135.7" cy="56.7" r="0.7"/>
				<circle class="st2" cx="139.2" cy="56.7" r="0.7"/>
				<circle class="st2" cx="142.3" cy="56.7" r="0.7"/>
			</g>
			<g>
				<path class="st2" d="M92.1,131.1c0.9,0,1.6,0.7,1.6,1.6s-0.7,1.6-1.6,1.6s-1.6-0.7-1.6-1.6S91.2,131.1,92.1,131.1 M92.1,130.5
					c-1.2,0-2.2,1-2.2,2.2s1,2.2,2.2,2.2s2.2-1,2.2-2.2S93.3,130.5,92.1,130.5L92.1,130.5z"/>
				<path class="st2" d="M108,132.4c0.5,0,1,0.4,1,1s-0.4,1-1,1s-1-0.4-1-1S107.5,132.4,108,132.4 M108,131.9
					c-0.8,0-1.5,0.7-1.5,1.5s0.7,1.5,1.5,1.5s1.5-0.7,1.5-1.5S108.9,131.9,108,131.9L108,131.9z"/>
				<path class="st2" d="M110,133.1c0-0.2,0-0.3,0.1-0.5c0.1-0.1,0.1-0.3,0.2-0.4c0.1-0.1,0.2-0.2,0.4-0.3c0.2-0.1,0.3-0.1,0.5-0.1
					c0,0,0.1,0,0.1,0s0.1,0,0.1,0c0,0,0.1,0,0.1,0s0.1,0,0.1,0.1c0.1,0,0.2,0.1,0.2,0.1c0.1,0.1,0.2,0.1,0.2,0.2s0.1,0.2,0.2,0.3
					c0,0.1,0.1,0.2,0.1,0.4v1.9h-0.6v-1.7c0-0.1,0-0.2,0-0.3c0-0.1-0.1-0.2-0.1-0.2c-0.1-0.1-0.1-0.1-0.2-0.2
					c-0.1,0-0.2-0.1-0.3-0.1s-0.2,0-0.3,0.1c-0.1,0-0.2,0.1-0.2,0.2s-0.1,0.1-0.1,0.2s-0.1,0.2-0.1,0.3v1.8H110L110,133.1L110,133.1
					z"/>
				<path class="st2" d="M113,132V131h0.6v1.1h0.5v0.6h-0.5v2.3H113v-2.3l0,0V132L113,132z"/>
				<g>
					<path class="st2" d="M114.8,131.8c0.1,0,0.2,0,0.3-0.1c0.1-0.1,0.1-0.2,0.1-0.3s0-0.2-0.1-0.3s-0.2-0.1-0.3-0.1s-0.2,0-0.3,0.1
						c-0.1,0.1-0.1,0.2-0.1,0.3s0,0.2,0.1,0.3S114.7,131.8,114.8,131.8z"/>
					<rect x="114.5" y="132" class="st2" width="0.6" height="2.8"/>
				</g>
				<path class="st2" d="M101.8,132c0-0.3,0-0.6,0.1-0.7c0.1-0.2,0.2-0.3,0.3-0.4c0.2-0.1,0.3-0.2,0.5-0.2c0.2-0.1,0.5-0.1,0.7-0.1
					h0.9v0.5h-0.9c-0.1,0-0.4,0-0.5,0.1s-0.2,0.1-0.3,0.1c-0.1,0.1-0.2,0.1-0.2,0.2c0,0.1-0.1,0.2-0.1,0.4v0.5h2v0.5h-2v1.9h-0.6
					L101.8,132L101.8,132z"/>
				<path class="st2" d="M105.5,132.4c0.2-0.3,0.5-0.4,0.8-0.5v0.6c-0.2,0-0.4,0.1-0.5,0.2c-0.2,0.2-0.3,0.4-0.3,0.7v1.5h-0.6V132
					h0.6C105.5,132,105.5,132.4,105.5,132.4z"/>
				<path class="st2" d="M119.3,132.4c0.2-0.3,0.5-0.4,0.8-0.5v0.6c-0.2,0-0.4,0.1-0.5,0.2c-0.2,0.2-0.3,0.4-0.3,0.7v1.5h-0.6V132
					h0.6C119.3,132,119.3,132.4,119.3,132.4z"/>
				<path class="st2" d="M96.2,131.9c-0.4,0-0.7,0.1-1,0.4v-0.4h-0.5v3.6h0.5v-1c0.3,0.2,0.6,0.4,1,0.4c0.8,0,1.5-0.7,1.5-1.5
					S97,131.9,96.2,131.9L96.2,131.9z M96.2,134.4c-0.5,0-1-0.4-1-1s0.4-1,1-1s1,0.4,1,1S96.8,134.4,96.2,134.4z"/>
				<path class="st2" d="M98,134.2V134h0.5v0.2c0,0.2,0.1,0.3,0.3,0.3s0.3-0.1,0.3-0.3c0-0.2-0.1-0.4-0.5-0.7
					c-0.4-0.3-0.6-0.6-0.6-0.9c0-0.5,0.3-0.7,0.8-0.7s0.8,0.3,0.8,0.7v0.1h-0.5v-0.1c0-0.2-0.1-0.3-0.3-0.3s-0.3,0.1-0.3,0.3
					c0,0.2,0.1,0.4,0.5,0.6c0.4,0.3,0.6,0.6,0.6,0.9c0,0.5-0.3,0.7-0.8,0.7S98,134.6,98,134.2L98,134.2z"/>
				<path class="st2" d="M117.8,133.9c-0.1,0.1-0.1,0.1-0.1,0.1c-0.2,0.2-0.4,0.3-0.7,0.3c-0.2,0-0.4,0-0.5-0.1l1.4-1.4l0.3-0.3
					c-0.1-0.1-0.1-0.1-0.2-0.2c0,0-0.1-0.1-0.1-0.1c-0.3-0.2-0.6-0.3-0.9-0.3c-0.4,0-0.8,0.1-1.1,0.4c-0.3,0.3-0.4,0.6-0.4,1.1
					s0.2,0.8,0.4,1.1c0.3,0.3,0.6,0.4,1.1,0.4s0.8-0.1,1.1-0.4c0,0,0.1-0.1,0.1-0.1L117.8,133.9L117.8,133.9z M116.1,133.4
					c0-0.3,0.1-0.5,0.3-0.7s0.4-0.3,0.7-0.3c0.2,0,0.3,0,0.4,0.1l-1.3,1.3C116.1,133.7,116.1,133.6,116.1,133.4L116.1,133.4z"/>
			</g>
			<g>
				<path class="st2" d="M176.4,40.7c-0.8,0-1.4,0.6-1.4,1.4s0.6,1.4,1.4,1.4s1.4-0.6,1.4-1.4S177.2,40.7,176.4,40.7z"/>
				<path class="st2" d="M184.8,47.7c0.8,0,1.4-0.6,1.4-1.4s-0.6-1.4-1.4-1.4s-1.4,0.6-1.4,1.4S184,47.7,184.8,47.7z"/>
				<path class="st2" d="M184.8,39.3c0.8,0,1.4-0.6,1.4-1.4s-0.6-1.4-1.4-1.4s-1.4,0.6-1.4,1.4S184,39.3,184.8,39.3z"/>
				<path class="st2" d="M190.9,33.5l-6.8-6.8l-0.2-0.2h-13.2v25.9h20.3V33.7L190.9,33.5z M178.8,42.1c0,0.2-0.1,0.4-0.1,0.6
					l4.2,2.1c0.4-0.5,1.1-0.9,1.9-0.9c1.4,0,2.5,1.1,2.5,2.5s-1.1,2.5-2.5,2.5s-2.5-1.1-2.5-2.5c0-0.2,0.1-0.4,0.1-0.6l-4.2-2.1
					c-0.4,0.5-1.1,0.9-1.9,0.9c-1.4,0-2.5-1.1-2.5-2.5s1.1-2.5,2.5-2.5c0.8,0,1.4,0.4,1.9,0.9l4.2-2.1c-0.1-0.2-0.1-0.4-0.1-0.6
					c0-1.3,1.1-2.5,2.5-2.5s2.5,1.1,2.5,2.5s-1.1,2.5-2.5,2.5c-0.8,0-1.4-0.4-1.9-0.9l-4.2,2.1C178.8,41.7,178.8,41.9,178.8,42.1z
					 M184.3,33.3v-4.8l4.8,4.8H184.3z"/>
			</g>
			<g>
				<path class="st2" d="M51.4,105.5l-3.7-2.9h-5.5c-2,0-3.5-1.6-3.5-3.5v-7c0-1.9,1.6-3.5,3.5-3.5h11.9c2,0,3.5,1.6,3.5,3.5v7
					c0,1.9-1.6,3.5-3.5,3.5h-2.8V105.5L51.4,105.5z M42.3,89.2c-1.5,0-2.8,1.2-2.8,2.8v7c0,1.5,1.2,2.8,2.8,2.8H48l2.6,2.1v-2.1h3.5
					c1.5,0,2.8-1.2,2.8-2.8v-7c0-1.5-1.2-2.8-2.8-2.8C54.2,89.2,42.3,89.2,42.3,89.2z"/>
				<path class="st2" d="M42.3,95H27.8c-2.1,0-3.8,1.7-3.9,3.8v8.6c0,2.1,1.7,3.8,3.9,3.8h3.9v3.1l3.8-3.1h6.9
					c2.1,0,3.8-1.7,3.8-3.8v-8.6C46.2,96.7,44.5,95,42.3,95z M31.3,104.5c-0.6,0-1.2-0.5-1.2-1.2s0.5-1.2,1.2-1.2s1.2,0.5,1.2,1.2
					S31.9,104.5,31.3,104.5z M35.1,104.5c-0.7,0-1.2-0.5-1.2-1.2s0.5-1.2,1.2-1.2s1.2,0.5,1.2,1.2S35.7,104.5,35.1,104.5z
					 M38.9,104.5c-0.7,0-1.2-0.5-1.2-1.2s0.5-1.2,1.2-1.2s1.2,0.5,1.2,1.2S39.5,104.5,38.9,104.5z"/>
			</g>
			<g>
				<path class="st2" d="M184.2,93.2l-5.6,4.4c-0.3,0.2-0.7,0.1-0.9-0.1l-6-6c-0.2-0.2-0.3-0.6-0.1-0.9l4.4-5.6
					c0.2-0.4,0.8-0.5,1.2-0.2l7.2,7.2C184.7,92.3,184.7,92.9,184.2,93.2z"/>
				<path class="st2" d="M156.5,111.8c0,0,10.2-10.3,10.3-10.4c-0.1-0.2-0.2-0.5-0.2-0.7c0-1,0.8-1.8,1.8-1.8s1.8,0.8,1.8,1.8
					s-0.8,1.8-1.8,1.8c-0.3,0-0.5-0.1-0.8-0.2c-0.1,0-10.4,10.3-10.4,10.3l17.7-5.3c0.1-3.2,0.2-6.4,2-9l-6.1-6.1
					c-2.7,1.9-5.9,1.9-9,2C160.1,99.9,156.5,111.8,156.5,111.8L156.5,111.8z"/>
			</g>
			<g>
				<g>
					<polygon class="st2" points="96.2,18.7 94.5,17.1 93.4,18.2 96.1,20.9 100.6,16.6 99.4,15.5 					"/>
					<rect x="104.4" y="17.3" class="st2" width="12.3" height="1.7"/>
				</g>
				<g>
					<polygon class="st2" points="96.2,32.7 94.5,31.1 93.4,32.2 96.1,34.9 100.6,30.6 99.4,29.5 					"/>
					<rect x="104.4" y="31.3" class="st2" width="12.3" height="1.7"/>
				</g>
				<g>
					<polygon class="st2" points="96.2,25.7 94.5,24.1 93.4,25.2 96.1,27.9 100.6,23.6 99.4,22.5 					"/>
					<rect x="104.4" y="24.3" class="st2" width="12.3" height="1.7"/>
				</g>
				<g>
					<path class="st12" d="M116.6,40h-12.3v-1.7h12.3V40z"/>
					<ellipse class="st2" cx="96.7" cy="39.2" rx="1.3" ry="1.2"/>
				</g>
			</g>
			<g>
				<path class="st12" d="M44.5,34.5H16.5v15.5h27.9C44.5,49.9,44.3,35,44.5,34.5z M26.4,45.8l-0.7,0.7l-4.1-4.2l4.1-4.2l0.7,0.7
					l-3.5,3.6L26.4,45.8L26.4,45.8z M29.4,45.8l-0.9-0.4l3-6.8l0.9,0.4C32.4,39,29.4,45.8,29.4,45.8z M35.3,46.4l-0.7-0.7l3.5-3.6
					l-3.5-3.6l0.7-0.7l4.1,4.2L35.3,46.4L35.3,46.4z"/>
				<path class="st12" d="M16.5,29.1v4.5h27.9v-4.5C44.5,29.1,16.5,29.1,16.5,29.1z M18.8,31.8c-0.3,0-0.5-0.2-0.5-0.5
					s0.2-0.5,0.5-0.5s0.5,0.2,0.5,0.5S19.1,31.8,18.8,31.8z M21.1,31.8c-0.3,0-0.5-0.2-0.5-0.5s0.2-0.5,0.5-0.5s0.5,0.2,0.5,0.5
					S21.4,31.8,21.1,31.8z M23.4,31.8c-0.3,0-0.5-0.2-0.5-0.5s0.2-0.5,0.5-0.5s0.5,0.2,0.5,0.5S23.6,31.8,23.4,31.8z"/>
			</g>
			<path class="st12" d="M113.7,84h-3v-4.9c0-3.4-2.7-6.1-6.1-6.1s-6.1,2.7-6.1,6.1V84h-3c-0.2,0-0.4,0.2-0.4,0.5v14
				c0,0.3,0.2,0.5,0.4,0.5h18.2c0.2,0,0.4-0.2,0.4-0.5v-14C114.1,84.3,113.9,84,113.7,84L113.7,84z M100.5,79.1c0-2.2,1.8-4,4-4
				s4,1.8,4,4V84h-8.1L100.5,79.1L100.5,79.1z M105.5,92.7v1.4c0,0.5-0.4,0.9-0.9,0.9s-0.9-0.4-0.9-0.9v-1.4c-1-0.4-1.7-1.5-1.4-2.8
				c0.2-0.9,1-1.7,1.9-1.9c1.5-0.3,2.9,0.9,2.9,2.4C107,91.5,106.4,92.4,105.5,92.7z"/>
		</g>
	</g>
</g>
</svg>
