<?xml version="1.0" encoding="utf-8"?>
<!-- Generator: Adobe Illustrator 27.9.5, SVG Export Plug-In . SVG Version: 9.03 Build 54986)  -->
<svg version="1.1" id="_レイヤー_2" xmlns="http://www.w3.org/2000/svg" xmlns:xlink="http://www.w3.org/1999/xlink" x="0px"
	 y="0px" viewBox="0 0 210 149.3" style="enable-background:new 0 0 210 149.3;" xml:space="preserve">
<style type="text/css">
	.st0{fill:none;}
	.st1{fill:#F0F0F0;}
	.st2{fill:url(#SVGID_1_);}
	.st3{fill:url(#SVGID_00000151535346234884478510000017453437102617957039_);}
	.st4{fill:#FFFFFF;}
	.st5{fill:url(#SVGID_00000027592163598135551080000004651576437055296149_);}
	.st6{fill:url(#SVGID_00000121960789787305859040000009109460051005362361_);}
	.st7{fill:url(#SVGID_00000169531331176786644570000010209075495574137001_);}
	.st8{fill:url(#SVGID_00000014606254545860792890000017545923836681073076_);}
	.st9{fill:url(#SVGID_00000075134852880347865020000003193195491540771218_);}
	.st10{fill:url(#SVGID_00000035498154022660632900000011972412423513327802_);}
	.st11{fill:url(#SVGID_00000069377457128670559820000002094101987082824109_);}
	.st12{fill:#221714;}
</style>
<g id="_レイヤー_1-2">
	<g>
		<rect y="0" class="st0" width="210" height="149.3"/>
		<rect y="0" class="st0" width="210" height="149.3"/>
		<g>
			<circle class="st1" cx="50.6" cy="77.1" r="20.4"/>
			<circle class="st1" cx="159.1" cy="77.1" r="20.4"/>
			<g>
				
					<linearGradient id="SVGID_1_" gradientUnits="userSpaceOnUse" x1="74.47" y1="103.2798" x2="99.74" y2="78.0098" gradientTransform="matrix(1 0 0 -1 0 149.8898)">
					<stop  offset="0" style="stop-color:#19779A"/>
					<stop  offset="1" style="stop-color:#0F6389"/>
				</linearGradient>
				<polygon class="st2" points="103.9,67.7 82.8,46.6 74.5,46.6 74.5,54.9 95.6,76 				"/>
				
					<linearGradient id="SVGID_00000066502510311665609650000015199405261895932589_" gradientUnits="userSpaceOnUse" x1="83.99" y1="51.7698" x2="133.59" y2="101.3698" gradientTransform="matrix(1 0 0 -1 0 149.8898)">
					<stop  offset="0" style="stop-color:#00515E"/>
					<stop  offset="1" style="stop-color:#1A2855"/>
				</linearGradient>
				<polygon style="fill:url(#SVGID_00000066502510311665609650000015199405261895932589_);" points="135.5,54.9 135.5,46.6 
					127.2,46.6 73.6,100.2 81.9,100.2 81.9,108.5 				"/>
				<g>
					<path class="st4" d="M98.4,87.5l-3.8-3.8l0.6-0.6l3.8,3.8L98.4,87.5L98.4,87.5z M97.2,85.4l-0.5-0.5l1-1
						c0.2-0.2,0.3-0.4,0.3-0.6c0-0.2-0.1-0.4-0.3-0.6c-0.2-0.2-0.3-0.2-0.6-0.2c-0.2,0-0.4,0.1-0.6,0.3l-1,1L95,83.2l1-1
						c0.2-0.2,0.5-0.4,0.8-0.5s0.6-0.1,0.8,0s0.5,0.2,0.7,0.4c0.2,0.2,0.4,0.5,0.4,0.7c0.1,0.3,0.1,0.5,0,0.8
						c-0.1,0.3-0.3,0.5-0.5,0.8L97.2,85.4L97.2,85.4z M100.4,85.4l-3-0.3l0.4-0.8l3.4,0.3L100.4,85.4L100.4,85.4z"/>
					<path class="st4" d="M101.9,83.9l-3.8-3.8l0.6-0.6l3.8,3.8L101.9,83.9L101.9,83.9z M99.1,80.2l-0.6-0.6l2.1-2.1l0.6,0.6
						L99.1,80.2z M100.7,81.8l-0.6-0.6l1.9-1.9l0.6,0.6L100.7,81.8z M102.3,83.5l-0.6-0.6l2.1-2.1l0.6,0.6L102.3,83.5z"/>
					<path class="st4" d="M105.3,80.5l-3.8-3.8l0.6-0.6l3.8,3.8L105.3,80.5L105.3,80.5z M105.7,80.1l-0.6-0.6l2-2l0.6,0.6
						L105.7,80.1z"/>
					<path class="st4" d="M108.4,77.4l-3.8-3.8l0.6-0.6l3.8,3.8L108.4,77.4L108.4,77.4z M105.6,73.8l-0.6-0.6l2.1-2.1l0.6,0.6
						L105.6,73.8z M107.2,75.3l-0.6-0.6l1.9-1.9l0.6,0.6L107.2,75.3z M108.8,77l-0.6-0.6l2.1-2.1l0.6,0.6L108.8,77z"/>
					<path class="st4" d="M111.5,74.3l-2.2-5.4l0.4-0.4l5.4,2.2l-0.7,0.7l-4.3-1.9l0.2-0.2l1.8,4.3L111.5,74.3L111.5,74.3z
						 M111.6,72.8l-0.5-0.5l2-2l0.5,0.5L111.6,72.8z"/>
					<path class="st4" d="M116.9,69.1c-0.3,0.3-0.6,0.5-0.9,0.6s-0.7,0.1-1,0.1v-0.8c0.3,0.1,0.5,0,0.7,0s0.5-0.2,0.7-0.4
						c0.2-0.2,0.3-0.4,0.4-0.6s0-0.4-0.2-0.6c-0.1-0.1-0.3-0.2-0.4-0.2s-0.3,0-0.5,0.1c-0.2,0.1-0.3,0.1-0.5,0.2s-0.3,0.2-0.5,0.2
						s-0.4,0.1-0.6,0.2c-0.2,0-0.4,0-0.6-0.1c-0.2-0.1-0.4-0.2-0.6-0.4c-0.2-0.2-0.4-0.5-0.4-0.7s0-0.5,0.1-0.8
						c0.1-0.3,0.3-0.5,0.5-0.8c0.2-0.2,0.5-0.4,0.8-0.5s0.6-0.1,0.9-0.1v0.8c-0.2,0-0.4,0-0.6,0.1c-0.2,0.1-0.3,0.2-0.5,0.3
						c-0.2,0.2-0.3,0.4-0.3,0.6s0,0.3,0.2,0.5c0.1,0.1,0.2,0.2,0.4,0.2s0.3,0,0.4-0.1c0.2-0.1,0.3-0.1,0.5-0.2
						c0.2-0.1,0.3-0.2,0.5-0.2s0.4-0.1,0.6-0.1c0.2,0,0.4,0,0.6,0.1s0.4,0.2,0.6,0.4c0.3,0.3,0.5,0.7,0.4,1.2
						C117.5,68.2,117.3,68.7,116.9,69.1L116.9,69.1z"/>
					<path class="st4" d="M119,66.8l-3.8-3.8l0.6-0.6l3.8,3.8L119,66.8L119,66.8z M116.2,63.2l-0.6-0.6l2.1-2.1l0.6,0.6L116.2,63.2z
						 M117.7,64.7l-0.6-0.6l1.9-2l0.6,0.5C119.7,62.8,117.7,64.7,117.7,64.7z M119.4,66.4l-0.6-0.6l2.1-2.1l0.6,0.6L119.4,66.4z"/>
				</g>
				<g>
					<path class="st4" d="M80.3,56.7l3.8-3.8l0.6,0.6l-3.8,3.8L80.3,56.7z M82.2,55.7l0.5-0.5l0.9,1c0.1,0.1,0.3,0.2,0.4,0.3
						s0.3,0,0.5,0s0.3-0.1,0.4-0.2s0.2-0.3,0.2-0.4c0-0.2,0-0.3,0-0.5c-0.1-0.2-0.1-0.3-0.3-0.4l-0.9-1l0.5-0.5l1,1
						c0.2,0.2,0.4,0.5,0.5,0.8s0.1,0.6,0,0.9s-0.2,0.5-0.5,0.8s-0.5,0.4-0.8,0.5s-0.6,0-0.9,0c-0.3-0.1-0.6-0.3-0.8-0.5L82.2,55.7
						L82.2,55.7z"/>
					<path class="st4" d="M83.7,60.1l3.8-3.8l0.6,0.6l-3.8,3.8L83.7,60.1L83.7,60.1z M84.1,60.5l0.6-0.6l2,2l-0.6,0.6L84.1,60.5z"/>
					<path class="st4" d="M86.6,63.1l5.4-2.2l0.4,0.4l-2.2,5.4l-0.7-0.7l1.9-4.3l0.2,0.2l-4.3,1.8L86.6,63.1L86.6,63.1z M88.2,63.1
						l0.5-0.5l2,2l-0.5,0.5L88.2,63.1z"/>
					<path class="st4" d="M90.8,67.3l3.8-3.8l0.4,0.4l-0.5,0.9l-3.1,3.1C91.5,67.9,90.8,67.3,90.8,67.3z M93.5,69.9l0.7-5.2l0.9-0.8
						l-0.7,5.2L93.5,69.9z M93.5,69.9L94,69l3.1-3.1l0.6,0.6l-3.8,3.8L93.5,69.9z"/>
				</g>
				
					<linearGradient id="SVGID_00000024003163655752826370000008071306981520925072_" gradientUnits="userSpaceOnUse" x1="110.23" y1="67.5198" x2="132.21" y2="45.5398" gradientTransform="matrix(1 0 0 -1 0 149.8898)">
					<stop  offset="0" style="stop-color:#19779A"/>
					<stop  offset="1" style="stop-color:#0F6389"/>
				</linearGradient>
				<polygon style="fill:url(#SVGID_00000024003163655752826370000008071306981520925072_);" points="114.4,78.2 106.1,86.5 
					128.1,108.5 128.1,100.2 136.4,100.2 				"/>
				
					<linearGradient id="SVGID_00000122717338498570760800000008111279749654110337_" gradientUnits="userSpaceOnUse" x1="128.79" y1="107.0898" x2="189.75" y2="107.0898" gradientTransform="matrix(1 0 0 -1 0 149.8898)">
					<stop  offset="0" style="stop-color:#1A2855"/>
					<stop  offset="1" style="stop-color:#073865"/>
				</linearGradient>
				<path style="fill:url(#SVGID_00000122717338498570760800000008111279749654110337_);" d="M137.1,53.3c6.2-6,14.4-9.4,23.1-9.4
					c7.9,0,15.3,2.7,21.2,7.7l8.4-0.4l-0.4-8.2c-8.1-7-18.4-10.8-29.2-10.8c-11.8,0-22.9,4.5-31.4,12.8h8.3V53.3L137.1,53.3z"/>
				<g>
					<path class="st4" d="M148.1,43.2l-1.6-5.1l0.8-0.3l1.6,5.1L148.1,43.2z M148.7,43l-0.2-0.8l1.4-0.4c0.4-0.1,0.6-0.3,0.9-0.5
						s0.4-0.5,0.4-0.8s0-0.7-0.1-1s-0.3-0.6-0.5-0.9s-0.5-0.4-0.8-0.4c-0.3-0.1-0.6,0-1,0.1l-1.4,0.4l-0.2-0.8l1.4-0.4
						c0.4-0.1,0.7-0.2,1.1-0.1s0.7,0.1,1,0.3c0.3,0.2,0.6,0.4,0.8,0.6s0.4,0.6,0.5,1c0.1,0.4,0.1,0.7,0.1,1.1c0,0.3-0.1,0.7-0.3,1
						s-0.4,0.6-0.7,0.8s-0.6,0.4-1,0.5L148.7,43L148.7,43z"/>
					<path class="st4" d="M153.6,41.6l-0.8-5.3l0.9-0.1l0.8,5.3C154.5,41.5,153.6,41.6,153.6,41.6z M153.5,37l-0.1-0.8l2.9-0.4
						l0.1,0.8L153.5,37z M153.8,39.2l-0.1-0.8l2.7-0.4l0.1,0.8L153.8,39.2z M154.2,41.5l-0.1-0.8l3-0.4l0.1,0.8L154.2,41.5z"/>
					<path class="st4" d="M158.2,41l0-5.4h0.9l0,5.4H158.2z M158.8,39v-0.8h1.3c0.2,0,0.4,0,0.5-0.1c0.1-0.1,0.2-0.2,0.3-0.3
						s0.1-0.3,0.1-0.5s0-0.3-0.1-0.5c-0.1-0.1-0.2-0.2-0.3-0.3s-0.3-0.1-0.5-0.1h-1.4v-0.8h1.4c0.3,0,0.6,0,0.9,0.2s0.5,0.3,0.6,0.6
						s0.2,0.5,0.2,0.9s-0.1,0.6-0.2,0.9c-0.1,0.2-0.4,0.5-0.6,0.6s-0.6,0.2-0.9,0.2L158.8,39L158.8,39z"/>
					<path class="st4" d="M162.8,41.1l0.7-5.3l0.9,0.1l-0.7,5.3L162.8,41.1z M163.4,41.2l0.1-0.8l2.8,0.3l-0.1,0.8L163.4,41.2z"/>
					<path class="st4" d="M169.2,42.3c-0.4-0.1-0.7-0.3-1-0.5s-0.5-0.5-0.7-0.8s-0.3-0.7-0.3-1s0-0.7,0.1-1.1s0.3-0.7,0.5-1
						s0.5-0.5,0.8-0.7s0.6-0.3,1-0.3s0.7,0,1.1,0.1c0.4,0.1,0.7,0.3,1,0.5c0.3,0.2,0.5,0.5,0.7,0.8c0.2,0.3,0.3,0.7,0.3,1
						s0,0.7-0.1,1.1c-0.1,0.4-0.3,0.7-0.5,1c-0.2,0.3-0.5,0.5-0.8,0.7s-0.6,0.3-1,0.3S169.5,42.4,169.2,42.3L169.2,42.3z
						 M169.4,41.5c0.4,0.1,0.7,0.1,1,0c0.3-0.1,0.6-0.2,0.8-0.5c0.2-0.2,0.4-0.5,0.5-0.9c0.1-0.3,0.1-0.5,0.1-0.8s-0.1-0.5-0.2-0.7
						s-0.3-0.4-0.4-0.5s-0.4-0.3-0.7-0.3c-0.4-0.1-0.7-0.1-1,0s-0.6,0.2-0.8,0.5s-0.4,0.5-0.5,0.9c-0.1,0.3-0.1,0.5-0.1,0.8
						c0,0.2,0.1,0.5,0.2,0.7s0.3,0.4,0.4,0.5S169.1,41.4,169.4,41.5L169.4,41.5z"/>
					<path class="st4" d="M173.7,43.9l1.1-2.5l0.8,0.4l-1.1,2.5L173.7,43.9z M174.7,42l-0.6-3.8l0.9,0.4l0.4,3l-0.4-0.2l2.6-1.7
						l0.9,0.4l-3.3,2C175.2,42.2,174.7,42,174.7,42z"/>
				</g>
				
					<linearGradient id="SVGID_00000013899833886077666190000012696748687098504084_" gradientUnits="userSpaceOnUse" x1="193.87" y1="105.2598" x2="193.87" y2="40.1798" gradientTransform="matrix(1 0 0 -1 0 149.8898)">
					<stop  offset="0" style="stop-color:#073865"/>
					<stop  offset="1" style="stop-color:#004A78"/>
				</linearGradient>
				<path style="fill:url(#SVGID_00000013899833886077666190000012696748687098504084_);" d="M205,75.5c-0.4-11.4-5-22-13.1-30
					c-0.3-0.3-0.5-0.5-0.8-0.8l0.4,8.2l-8.4,0.4c0.2,0.2,0.3,0.3,0.5,0.5c5.9,5.8,9.2,13.5,9.7,21.7l0,2.2
					c-0.1,8.7-3.6,16.8-9.7,22.9c-0.1,0.1-0.1,0.2-0.2,0.2l-0.6,8.4l8.2,0.6c0.3-0.3,0.6-0.6,0.9-0.9c8.4-8.3,13-19.4,13.1-31.2
					V75.5L205,75.5z"/>
				<g>
					<path class="st4" d="M194,65.4c-0.1-0.4-0.2-0.7-0.2-1.1s0.1-0.7,0.2-1s0.4-0.6,0.6-0.9c0.3-0.2,0.6-0.4,0.9-0.6
						c0.4-0.1,0.7-0.2,1.1-0.2c0.4,0,0.7,0.1,1,0.2c0.3,0.1,0.6,0.3,0.9,0.6c0.2,0.3,0.4,0.6,0.6,0.9c0.1,0.4,0.2,0.7,0.2,1.1
						c0,0.4-0.1,0.7-0.2,1s-0.4,0.6-0.6,0.9c-0.3,0.2-0.6,0.4-0.9,0.6s-0.7,0.2-1.1,0.2s-0.7-0.1-1-0.2c-0.3-0.2-0.6-0.3-0.9-0.6
						S194.2,65.8,194,65.4L194,65.4z M194.8,65.1c0.1,0.3,0.3,0.6,0.6,0.8s0.5,0.3,0.9,0.4c0.3,0,0.7,0,1-0.1
						c0.3-0.1,0.5-0.2,0.7-0.4c0.2-0.2,0.3-0.4,0.4-0.6c0.1-0.2,0.2-0.4,0.2-0.7c0-0.2,0-0.5-0.1-0.7c-0.1-0.3-0.3-0.6-0.6-0.8
						s-0.5-0.3-0.9-0.4c-0.3,0-0.7,0-1,0.1c-0.3,0.1-0.5,0.2-0.7,0.4c-0.2,0.2-0.3,0.4-0.4,0.6s-0.2,0.4-0.2,0.7
						C194.7,64.6,194.7,64.9,194.8,65.1L194.8,65.1z"/>
					<path class="st4" d="M195.2,68.9l5.3-1l0.2,0.9l-5.3,1L195.2,68.9z M197.4,69.1l0.8-0.2l0.3,1.3c0,0.2,0.1,0.3,0.2,0.5
						s0.2,0.2,0.4,0.3c0.1,0.1,0.3,0.1,0.5,0c0.2,0,0.3-0.1,0.4-0.2c0.1-0.1,0.2-0.2,0.2-0.4c0.1-0.2,0.1-0.3,0-0.5l-0.3-1.3
						l0.8-0.2l0.3,1.4c0.1,0.3,0.1,0.6,0,0.9c-0.1,0.3-0.2,0.5-0.4,0.7s-0.5,0.3-0.8,0.4s-0.6,0.1-0.9-0.1c-0.3-0.1-0.5-0.3-0.7-0.5
						s-0.3-0.5-0.4-0.8L197.4,69.1L197.4,69.1z"/>
					<path class="st4" d="M196.1,73.4l5.4-0.3l0.1,0.9l-5.4,0.3L196.1,73.4z M196.1,74.1l0.8-0.1l0.2,3l-0.8,0.1L196.1,74.1z
						 M198.5,73.9l0.8-0.1l0.2,2.8l-0.8,0.1L198.5,73.9z M200.7,73.8l0.8-0.1l0.2,3l-0.8,0.1L200.7,73.8z"/>
					<path class="st4" d="M196,81l2.5-1.7l0.2,0.8l-2.8,2L196,81L196,81z M196.3,78.1l5.4,0.4l-0.1,0.9l-5.4-0.4L196.3,78.1z
						 M198.5,78.9l0.7,0.1l-0.1,1.4c0,0.3,0,0.5,0.2,0.7s0.3,0.2,0.6,0.3c0.2,0,0.4,0,0.6-0.2s0.3-0.3,0.3-0.6l0.1-1.4l0.8,0.1
						l-0.1,1.4c0,0.3-0.1,0.6-0.3,0.9c-0.2,0.2-0.4,0.4-0.6,0.6s-0.5,0.2-0.8,0.2c-0.3,0-0.6-0.1-0.8-0.3s-0.4-0.4-0.5-0.6
						s-0.1-0.6-0.1-0.9L198.5,78.9L198.5,78.9z"/>
					<path class="st4" d="M195.9,82.7l4.7,3.4l-0.1,0.6l-5.8,0.9l0.2-0.9l4.6-0.6l-0.1,0.3l-3.8-2.7
						C195.6,83.6,195.9,82.6,195.9,82.7z M196.6,84l0.8,0.2l-0.7,2.8l-0.8-0.2L196.6,84z"/>
					<path class="st4" d="M194.1,88.9l4.9,1.9l-0.3,0.8l-4.9-1.9L194.1,88.9z M199,89l0.8,0.3l-1.6,4.1l-0.8-0.3L199,89z"/>
					<path class="st4" d="M192.5,92.6l0.7,0.4l-1.5,2.6l-0.7-0.4L192.5,92.6z M192.8,92.1l4.7,2.7l-0.4,0.8l-4.7-2.7L192.8,92.1z
						 M194.5,93.7l0.7,0.4l-1.4,2.4l-0.7-0.4L194.5,93.7z M196.4,94.8l0.7,0.4l-1.5,2.6l-0.7-0.4L196.4,94.8L196.4,94.8z"/>
				</g>
				
					<linearGradient id="SVGID_00000080893347457482783720000001569678016763011234_" gradientUnits="userSpaceOnUse" x1="129.63" y1="38.0148" x2="189.32" y2="38.0148" gradientTransform="matrix(1 0 0 -1 0 149.8898)">
					<stop  offset="0" style="stop-color:#0F6389"/>
					<stop  offset="1" style="stop-color:#004A78"/>
				</linearGradient>
				<path style="fill:url(#SVGID_00000080893347457482783720000001569678016763011234_);" d="M181.1,110.7l0.6-8.3
					c-12.6,10.7-31.3,10.5-43.7-0.6h-8.3v8.2c8.3,7.7,19.1,12,30.5,12c10.8,0,21.1-3.8,29.2-10.8L181.1,110.7L181.1,110.7z"/>
				<g>
					<path class="st4" d="M139.4,113.9l2.2-4.9l0.6,0.2l0.5,4.3l-0.4-0.2l3.6-2.4l0.6,0.2l-2.2,4.9l-0.8-0.4l1.6-3.5l0.2,0.1
						l-2.6,1.8l-0.6-0.2l-0.4-3.2l0.2,0l-1.6,3.5L139.4,113.9L139.4,113.9z"/>
					<path class="st4" d="M148.4,117.5c-0.4-0.1-0.7-0.3-1-0.5c-0.3-0.2-0.5-0.5-0.7-0.8c-0.2-0.3-0.3-0.7-0.3-1s0-0.7,0.1-1.1
						s0.3-0.7,0.5-1c0.2-0.3,0.5-0.5,0.8-0.7c0.3-0.2,0.6-0.3,1-0.3c0.4-0.1,0.7,0,1.1,0.1c0.4,0.1,0.7,0.3,1,0.5s0.5,0.5,0.7,0.8
						s0.3,0.7,0.3,1s0,0.7-0.1,1.1c-0.1,0.4-0.3,0.7-0.5,1c-0.2,0.3-0.5,0.5-0.8,0.7c-0.3,0.2-0.6,0.3-1,0.3
						C149.2,117.6,148.8,117.6,148.4,117.5L148.4,117.5z M148.7,116.7c0.4,0.1,0.7,0.1,1,0s0.6-0.2,0.8-0.5s0.4-0.5,0.5-0.9
						c0.1-0.3,0.1-0.5,0.1-0.8s-0.1-0.5-0.2-0.7s-0.3-0.4-0.5-0.5c-0.2-0.2-0.4-0.3-0.7-0.3c-0.4-0.1-0.7-0.1-1,0
						c-0.3,0.1-0.6,0.2-0.8,0.5c-0.2,0.2-0.4,0.5-0.5,0.9c-0.1,0.3-0.1,0.5-0.1,0.8c0,0.2,0.1,0.5,0.2,0.7s0.3,0.4,0.5,0.5
						C148.2,116.5,148.4,116.6,148.7,116.7L148.7,116.7z"/>
					<path class="st4" d="M152.7,118.4l0.6-5.3l0.6,0.1l0.1,1l-0.5,4.3L152.7,118.4z M156.4,118.8l-2.7-4.6l0.2-1.2l2.7,4.6
						L156.4,118.8z M156.4,118.8l-0.2-1l0.5-4.4l0.9,0.1l-0.6,5.3C157,118.9,156.4,118.8,156.4,118.8z"/>
					<path class="st4" d="M158.8,118.9l0.1-5.4l0.9,0l-0.1,5.4L158.8,118.9z"/>
					<path class="st4" d="M160.6,114.4l-0.1-0.8l4.4-0.3l0.1,0.8L160.6,114.4z M162.6,118.9l-0.3-5.2l0.9-0.1l0.3,5.2L162.6,118.9z"
						/>
					<path class="st4" d="M168.9,118.2c-0.4,0.1-0.7,0.1-1.1,0c-0.4-0.1-0.7-0.2-1-0.4s-0.5-0.4-0.8-0.8c-0.2-0.3-0.3-0.6-0.4-1
						c-0.1-0.4-0.1-0.7,0-1.1c0.1-0.3,0.2-0.7,0.4-1c0.2-0.3,0.4-0.6,0.7-0.8s0.6-0.3,1-0.4c0.4-0.1,0.7-0.1,1.1,0
						c0.4,0.1,0.7,0.2,1,0.4s0.5,0.4,0.8,0.8c0.2,0.3,0.3,0.6,0.4,1c0.1,0.4,0.1,0.7,0,1.1s-0.2,0.7-0.4,1c-0.2,0.3-0.4,0.5-0.7,0.8
						S169.2,118.1,168.9,118.2L168.9,118.2z M168.7,117.4c0.4-0.1,0.6-0.2,0.9-0.4s0.4-0.5,0.5-0.8s0.1-0.7,0-1
						c-0.1-0.3-0.1-0.5-0.3-0.7c-0.1-0.2-0.3-0.4-0.5-0.5s-0.4-0.2-0.6-0.3c-0.2-0.1-0.5,0-0.8,0c-0.4,0.1-0.6,0.2-0.9,0.4
						c-0.2,0.2-0.4,0.5-0.5,0.8c-0.1,0.3-0.1,0.7,0,1c0.1,0.3,0.1,0.5,0.3,0.7s0.3,0.4,0.5,0.5c0.2,0.1,0.4,0.2,0.6,0.3
						C168.2,117.4,168.5,117.4,168.7,117.4L168.7,117.4z"/>
					<path class="st4" d="M173.1,117.1l-1.8-5.1l0.8-0.3l1.8,5.1L173.1,117.1L173.1,117.1z M172.9,114.8l-0.2-0.7l1.3-0.4
						c0.3-0.1,0.4-0.2,0.5-0.4c0.1-0.2,0.1-0.4,0-0.6c-0.1-0.2-0.2-0.4-0.4-0.5s-0.4-0.1-0.7,0l-1.3,0.4l-0.2-0.7l1.3-0.5
						c0.3-0.1,0.6-0.1,0.9-0.1s0.5,0.2,0.7,0.3c0.2,0.2,0.4,0.4,0.5,0.7c0.1,0.3,0.1,0.6,0.1,0.8c-0.1,0.3-0.2,0.5-0.4,0.7
						c-0.2,0.2-0.5,0.4-0.8,0.5L172.9,114.8L172.9,114.8z M175.9,116.1l-2.6-1.6l0.7-0.6l2.9,1.8L175.9,116.1L175.9,116.1z"/>
				</g>
				<g>
					
						<linearGradient id="SVGID_00000030485503908470750320000008757245734991063712_" gradientUnits="userSpaceOnUse" x1="20.25" y1="107.0898" x2="81.21" y2="107.0898" gradientTransform="matrix(1 0 0 -1 0 149.8898)">
						<stop  offset="0" style="stop-color:#16787D"/>
						<stop  offset="1" style="stop-color:#19779A"/>
					</linearGradient>
					<path style="fill:url(#SVGID_00000030485503908470750320000008757245734991063712_);" d="M72.9,53.3c-6.2-6-14.4-9.4-23.1-9.4
						c-7.8,0-15.3,2.7-21.2,7.7l-8.4-0.4l0.4-8.2c8.1-7,18.4-10.8,29.2-10.8c11.8,0,22.9,4.5,31.3,12.8h-8.3V53.3L72.9,53.3z"/>
					<g>
						<path class="st4" d="M40.4,42.5c-0.4,0.1-0.7,0.2-1.1,0.1c-0.4,0-0.7-0.1-1-0.3s-0.6-0.4-0.8-0.7c-0.2-0.3-0.4-0.6-0.5-1
							s-0.2-0.7-0.1-1.1s0.1-0.7,0.3-1s0.4-0.6,0.7-0.8s0.6-0.4,1-0.5c0.4-0.1,0.8-0.2,1.1-0.1c0.3,0,0.7,0.2,1,0.3l-0.4,0.8
							c-0.2-0.1-0.4-0.2-0.7-0.2c-0.2,0-0.5,0-0.8,0.1c-0.2,0.1-0.5,0.2-0.7,0.3c-0.2,0.2-0.3,0.3-0.4,0.5c-0.1,0.2-0.2,0.4-0.2,0.7
							c0,0.2,0,0.5,0.1,0.8c0.1,0.3,0.2,0.5,0.3,0.7c0.2,0.2,0.3,0.4,0.5,0.5s0.4,0.2,0.7,0.2s0.5,0,0.7-0.1
							c0.3-0.1,0.6-0.2,0.8-0.4s0.3-0.3,0.4-0.6l0.8,0.4c-0.2,0.3-0.4,0.6-0.7,0.8S40.8,42.4,40.4,42.5L40.4,42.5z"/>
						<path class="st4" d="M45.4,41.4c-0.4,0-0.8,0-1.1-0.1s-0.7-0.3-1-0.5c-0.3-0.2-0.5-0.5-0.7-0.8c-0.2-0.3-0.3-0.7-0.3-1
							s0-0.8,0.1-1.1s0.2-0.7,0.5-1c0.2-0.3,0.5-0.5,0.8-0.7c0.3-0.2,0.7-0.3,1-0.3c0.4,0,0.7,0,1.1,0.1s0.7,0.2,0.9,0.5
							s0.5,0.5,0.7,0.8s0.3,0.7,0.3,1s0,0.8-0.1,1.1s-0.2,0.7-0.5,1c-0.2,0.3-0.5,0.5-0.8,0.7C46.1,41.3,45.8,41.4,45.4,41.4
							L45.4,41.4z M45.3,40.6c0.4,0,0.7-0.2,0.9-0.4s0.4-0.5,0.5-0.8s0.2-0.7,0.1-1c0-0.3-0.1-0.5-0.2-0.8c-0.1-0.2-0.3-0.4-0.5-0.5
							c-0.2-0.2-0.4-0.2-0.6-0.3c-0.2-0.1-0.5-0.1-0.8,0c-0.4,0-0.7,0.2-0.9,0.4s-0.4,0.5-0.5,0.8c-0.1,0.3-0.2,0.7-0.1,1
							c0,0.3,0.1,0.5,0.2,0.8c0.1,0.2,0.3,0.4,0.5,0.6s0.4,0.2,0.6,0.3C44.8,40.6,45,40.6,45.3,40.6z"/>
						<path class="st4" d="M49,41l0.2-5.4l0.9,0L49.9,41L49,41z M49.7,41l0-0.8l1.4,0.1c0.4,0,0.7,0,1-0.2c0.3-0.2,0.5-0.4,0.7-0.6
							s0.3-0.6,0.3-1c0-0.4,0-0.7-0.2-1s-0.4-0.5-0.6-0.7s-0.6-0.3-1-0.3l-1.4-0.1l0-0.8l1.4,0.1c0.4,0,0.8,0.1,1.1,0.2
							c0.3,0.2,0.6,0.3,0.8,0.6c0.2,0.2,0.4,0.5,0.5,0.9s0.2,0.7,0.2,1.1s-0.1,0.7-0.2,1s-0.4,0.6-0.6,0.8c-0.3,0.2-0.5,0.4-0.9,0.5
							s-0.7,0.2-1.1,0.2L49.7,41L49.7,41z"/>
						<path class="st4" d="M54.8,41.4l1-5.3l0.9,0.2l-1,5.3L54.8,41.4z M55.4,41.5l0.2-0.8l3,0.6l-0.2,0.8L55.4,41.5z M55.8,39.2
							l0.2-0.8l2.7,0.5l-0.2,0.8L55.8,39.2z M56.3,37l0.2-0.8l2.9,0.6l-0.2,0.8L56.3,37z"/>
					</g>
					
						<linearGradient id="SVGID_00000008113976792787348950000012975298721874672257_" gradientUnits="userSpaceOnUse" x1="16.13" y1="105.2598" x2="16.13" y2="40.1798" gradientTransform="matrix(1 0 0 -1 0 149.8898)">
						<stop  offset="0" style="stop-color:#16787D"/>
						<stop  offset="1" style="stop-color:#0C785F"/>
					</linearGradient>
					<path style="fill:url(#SVGID_00000008113976792787348950000012975298721874672257_);" d="M5,75.5c0.4-11.4,5-22,13.1-30
						c0.3-0.3,0.5-0.5,0.8-0.8l-0.4,8.2l8.4,0.4c-0.2,0.2-0.3,0.3-0.5,0.5c-5.9,5.8-9.2,13.5-9.7,21.7l0,2.2
						c0.1,8.7,3.6,16.8,9.7,22.9c0.1,0.1,0.1,0.2,0.2,0.2l0.6,8.4l-8.2,0.6c-0.3-0.3-0.6-0.6-0.9-0.9C9.8,100.5,5.2,89.4,5,77.6
						L5,75.5L5,75.5z"/>
					<g>
						<path class="st4" d="M16,88.6l-0.7,0.2l-0.5-1.5c-0.1-0.3-0.2-0.4-0.4-0.5s-0.4-0.1-0.6,0c-0.1,0.1-0.3,0.1-0.4,0.2
							c-0.1,0.1-0.2,0.2-0.2,0.4c0,0.2,0,0.3,0,0.5l0.5,1.5l-0.7,0.2l-0.4-1.3c-0.1-0.2-0.2-0.4-0.3-0.5s-0.3-0.1-0.6,0
							s-0.4,0.2-0.4,0.4c-0.1,0.2-0.1,0.4,0,0.6l0.4,1.3l-0.7,0.2l-0.4-1.4c-0.1-0.3-0.1-0.7-0.1-0.9s0.2-0.5,0.3-0.7
							s0.4-0.3,0.6-0.4c0.3-0.1,0.5-0.1,0.8,0c0.2,0.1,0.5,0.2,0.7,0.5l-0.3,0c0-0.4,0.1-0.7,0.3-0.9s0.4-0.4,0.8-0.6
							c0.3-0.1,0.5-0.1,0.8,0s0.5,0.2,0.7,0.4s0.4,0.5,0.5,0.9L16,88.6L16,88.6z M16.2,89.2l-5.1,1.7L10.8,90l5.1-1.7L16.2,89.2z"/>
						<path class="st4" d="M14.5,82.5c0.1,0.4,0,0.8-0.1,1.1c-0.1,0.3-0.3,0.6-0.6,0.9s-0.6,0.4-1,0.4l-3.3,0.5l-0.1-0.9l3.3-0.5
							c0.3,0,0.5-0.1,0.6-0.3c0.2-0.1,0.3-0.3,0.4-0.5c0.1-0.2,0.1-0.4,0.1-0.7c0-0.2-0.1-0.4-0.3-0.6s-0.3-0.3-0.5-0.4
							c-0.2-0.1-0.4-0.1-0.7-0.1l-3.3,0.5l-0.1-0.9l3.3-0.5c0.4-0.1,0.8,0,1.1,0.1s0.6,0.3,0.9,0.6C14.3,81.8,14.4,82.1,14.5,82.5
							L14.5,82.5z"/>
						<path class="st4" d="M14,79.2l-5.4,0.2l0-0.9l5.4-0.2L14,79.2z"/>
						<path class="st4" d="M13.9,77l-5.4-0.3l0-0.9l5.4,0.3L13.9,77L13.9,77z M14,76.4l-0.8,0l0.1-2.8l0.8,0L14,76.4z"/>
						<path class="st4" d="M14.2,72.8l-5.3-1l0.2-0.9l5.3,1L14.2,72.8z M14.3,72.2l-0.8-0.2l0.3-1.4c0.1-0.4,0.1-0.7,0-1
							s-0.3-0.6-0.5-0.8s-0.6-0.3-0.9-0.4s-0.7-0.1-1,0c-0.3,0.1-0.6,0.3-0.8,0.5s-0.4,0.5-0.4,0.9l-0.3,1.4L9,71.2l0.3-1.4
							c0.1-0.4,0.2-0.7,0.4-1c0.2-0.3,0.4-0.6,0.7-0.8s0.6-0.3,0.9-0.4c0.4-0.1,0.7-0.1,1.1,0s0.7,0.2,1,0.4s0.5,0.4,0.7,0.7
							c0.2,0.3,0.3,0.6,0.4,1c0.1,0.3,0.1,0.7,0,1.1L14.3,72.2L14.3,72.2z"/>
					</g>
					
						<linearGradient id="SVGID_00000153699825256346433230000015373269878531570097_" gradientUnits="userSpaceOnUse" x1="20.68" y1="38.0148" x2="80.37" y2="38.0148" gradientTransform="matrix(1 0 0 -1 0 149.8898)">
						<stop  offset="0" style="stop-color:#0C785F"/>
						<stop  offset="1" style="stop-color:#00515E"/>
					</linearGradient>
					<path style="fill:url(#SVGID_00000153699825256346433230000015373269878531570097_);" d="M28.9,110.7l-0.6-8.3
						c12.6,10.7,31.3,10.5,43.7-0.6h8.3v8.2c-8.3,7.7-19.1,12-30.5,12c-10.8,0-21-3.8-29.2-10.8L28.9,110.7L28.9,110.7z"/>
					<g>
						<path class="st4" d="M42.1,113.8l0.1-0.8l4.3,0.6l-0.1,0.8L42.1,113.8z M43.2,118.6l0.7-5.2l0.9,0.1l-0.7,5.2L43.2,118.6z"/>
						<path class="st4" d="M47.2,119l0.1-5.4l0.9,0L48,119L47.2,119z M47.8,119l0-0.8l3,0.1l0,0.8L47.8,119z M47.8,116.7l0-0.8
							l2.8,0.1l0,0.8L47.8,116.7z M47.9,114.5l0-0.8l3,0.1l0,0.8L47.9,114.5z"/>
						<path class="st4" d="M53.8,119c-0.4,0-0.8,0-1.1-0.1c-0.3-0.1-0.6-0.3-0.9-0.6l0.5-0.7c0.2,0.2,0.4,0.3,0.6,0.5
							c0.2,0.1,0.5,0.1,0.8,0.1c0.3,0,0.5-0.1,0.7-0.2c0.2-0.1,0.2-0.3,0.2-0.5c0-0.2-0.1-0.3-0.2-0.4s-0.2-0.2-0.4-0.2
							s-0.3-0.1-0.5-0.2c-0.2,0-0.4-0.1-0.6-0.2s-0.4-0.1-0.5-0.2s-0.3-0.2-0.4-0.4s-0.2-0.4-0.2-0.7c0-0.3,0-0.6,0.2-0.8
							c0.1-0.2,0.3-0.4,0.6-0.6c0.3-0.1,0.5-0.2,0.9-0.3c0.3,0,0.7,0,1,0.1s0.5,0.3,0.7,0.5l-0.5,0.7c-0.2-0.2-0.3-0.3-0.5-0.3
							s-0.4-0.1-0.6-0.1c-0.3,0-0.5,0.1-0.6,0.2s-0.2,0.3-0.2,0.5c0,0.2,0.1,0.3,0.2,0.4s0.2,0.2,0.4,0.2s0.3,0.1,0.5,0.2
							c0.2,0.1,0.4,0.1,0.6,0.2c0.2,0.1,0.4,0.1,0.5,0.2s0.3,0.2,0.4,0.4s0.2,0.4,0.2,0.7c0,0.5-0.1,0.9-0.4,1.2
							C54.9,118.7,54.4,118.9,53.8,119L53.8,119z"/>
						<path class="st4" d="M55.9,114.1l-0.2-0.8l4.3-0.9l0.2,0.8L55.9,114.1z M58.6,118.2l-1.1-5.1l0.9-0.2l1.1,5.1L58.6,118.2z"/>
					</g>
				</g>
			</g>
			<g>
				<path class="st12" d="M41.2,79.9v-8h1.3v8H41.2z M42.1,79.9v-1.2h2.1c0.5,0,1-0.1,1.5-0.3c0.4-0.2,0.7-0.6,1-1s0.3-0.9,0.3-1.5
					s-0.1-1-0.3-1.4s-0.6-0.8-1-1c-0.4-0.2-0.9-0.3-1.4-0.3h-2.1v-1.2h2.1c0.6,0,1.1,0.1,1.6,0.3c0.5,0.2,0.9,0.5,1.3,0.8
					c0.4,0.4,0.7,0.8,0.9,1.3c0.2,0.5,0.3,1,0.3,1.6s-0.1,1.1-0.3,1.6c-0.2,0.5-0.5,0.9-0.9,1.3s-0.8,0.6-1.3,0.8s-1,0.3-1.6,0.3
					L42.1,79.9L42.1,79.9z"/>
				<path class="st12" d="M52.1,80c-0.5,0-1-0.1-1.5-0.4s-0.8-0.6-1-1c-0.3-0.4-0.4-0.9-0.4-1.5s0.1-1,0.4-1.5s0.6-0.8,1-1
					s0.9-0.4,1.4-0.4s1,0.1,1.3,0.3c0.4,0.2,0.7,0.6,0.9,1s0.3,0.9,0.3,1.4c0,0.1,0,0.2,0,0.3c0,0.1,0,0.2,0,0.3h-4.5v-1h3.8
					L53.4,77c0-0.3-0.1-0.6-0.2-0.8s-0.3-0.4-0.5-0.5s-0.5-0.2-0.8-0.2c-0.3,0-0.6,0.1-0.8,0.2c-0.2,0.1-0.4,0.3-0.5,0.6
					s-0.2,0.5-0.2,0.9s0.1,0.6,0.2,0.9s0.3,0.5,0.6,0.6s0.5,0.2,0.9,0.2c0.3,0,0.5-0.1,0.8-0.2c0.2-0.1,0.4-0.2,0.6-0.4l0.8,0.8
					c-0.3,0.3-0.6,0.6-1,0.7S52.5,80,52.1,80L52.1,80z"/>
				<path class="st12" d="M57.5,79.9L55,74.4h1.4l1.9,4.5h-0.8l1.9-4.5h1.3l-2.5,5.5H57.5L57.5,79.9z"/>
			</g>
			<g>
				<path class="st12" d="M97.8,37c-0.7,0-1.4-0.1-1.9-0.4s-1-0.7-1.4-1.2l1-1c0.3,0.4,0.6,0.7,0.9,0.9s0.8,0.3,1.4,0.3
					c0.5,0,0.9-0.1,1.2-0.3c0.3-0.2,0.5-0.5,0.5-0.9c0-0.3-0.1-0.6-0.2-0.8c-0.2-0.2-0.4-0.4-0.6-0.5c-0.3-0.1-0.6-0.2-0.9-0.3
					c-0.3-0.1-0.6-0.2-0.9-0.3s-0.6-0.3-0.9-0.5s-0.5-0.5-0.6-0.8c-0.2-0.3-0.2-0.7-0.2-1.2c0-0.5,0.1-1,0.4-1.4s0.6-0.7,1.1-0.9
					c0.5-0.2,1-0.3,1.6-0.3c0.6,0,1.2,0.1,1.7,0.4s0.9,0.5,1.2,0.9l-1,1c-0.3-0.3-0.5-0.5-0.8-0.7c-0.3-0.1-0.6-0.2-1-0.2
					c-0.5,0-0.8,0.1-1.1,0.3s-0.4,0.5-0.4,0.8c0,0.3,0.1,0.5,0.2,0.7c0.2,0.2,0.4,0.3,0.6,0.4s0.6,0.2,0.9,0.3s0.6,0.2,0.9,0.4
					c0.3,0.1,0.6,0.3,0.9,0.5c0.3,0.2,0.5,0.5,0.6,0.8c0.2,0.3,0.2,0.7,0.2,1.2c0,0.8-0.3,1.5-0.9,2S98.9,36.9,97.8,37L97.8,37z"/>
				<path class="st12" d="M105.4,37c-0.6,0-1.2-0.1-1.7-0.4s-0.9-0.7-1.2-1.2s-0.4-1.1-0.4-1.7s0.2-1.2,0.4-1.7s0.7-0.9,1.2-1.2
					s1.1-0.4,1.7-0.4s1.1,0.1,1.6,0.4c0.5,0.3,0.8,0.6,1.1,1.1c0.3,0.5,0.4,1,0.4,1.6c0,0.1,0,0.2,0,0.3c0,0.1,0,0.2-0.1,0.4h-5.2
					V33h4.5l-0.6,0.5c0-0.4-0.1-0.7-0.2-1s-0.3-0.5-0.6-0.6c-0.2-0.1-0.5-0.2-0.9-0.2c-0.4,0-0.7,0.1-1,0.2
					c-0.3,0.2-0.5,0.4-0.6,0.7s-0.2,0.6-0.2,1s0.1,0.8,0.2,1s0.4,0.5,0.7,0.7s0.6,0.2,1,0.2c0.3,0,0.6-0.1,0.9-0.2
					c0.3-0.1,0.5-0.3,0.7-0.5l0.9,1c-0.3,0.4-0.7,0.6-1.1,0.8C106.4,36.9,105.9,37,105.4,37L105.4,37z"/>
				<path class="st12" d="M112.5,37c-0.6,0-1.2-0.2-1.7-0.4c-0.5-0.3-0.9-0.7-1.2-1.2c-0.3-0.5-0.4-1.1-0.4-1.7s0.2-1.2,0.4-1.7
					s0.7-0.9,1.2-1.2s1.1-0.4,1.7-0.4c0.5,0,1,0.1,1.4,0.3s0.8,0.5,1.1,0.8l-1,1c-0.2-0.2-0.4-0.4-0.7-0.5s-0.6-0.2-0.9-0.2
					c-0.4,0-0.7,0.1-1,0.2c-0.3,0.2-0.5,0.4-0.7,0.7c-0.2,0.3-0.2,0.6-0.2,1s0.1,0.7,0.2,1c0.2,0.3,0.4,0.5,0.7,0.7s0.6,0.2,1,0.2
					c0.3,0,0.6,0,0.9-0.2s0.5-0.3,0.7-0.5l1,1c-0.3,0.4-0.7,0.6-1.1,0.8S113,37,112.5,37z"/>
			</g>
			<g>
				<path class="st12" d="M153.3,80c-0.6,0-1.1-0.1-1.6-0.3s-0.9-0.5-1.3-0.9c-0.4-0.4-0.7-0.8-0.9-1.3s-0.3-1-0.3-1.6
					s0.1-1.1,0.3-1.6s0.5-0.9,0.9-1.3s0.8-0.7,1.3-0.9c0.5-0.2,1-0.3,1.6-0.3s1.1,0.1,1.6,0.3c0.5,0.2,0.9,0.5,1.3,0.9
					c0.4,0.4,0.7,0.8,0.9,1.3c0.2,0.5,0.3,1,0.3,1.6s-0.1,1.1-0.3,1.6c-0.2,0.5-0.5,0.9-0.9,1.3c-0.4,0.4-0.8,0.7-1.3,0.9
					C154.4,79.9,153.9,80,153.3,80L153.3,80z M153.3,78.8c0.5,0,1-0.1,1.4-0.4c0.4-0.2,0.7-0.6,1-1c0.2-0.4,0.4-0.9,0.4-1.5
					c0-0.4-0.1-0.8-0.2-1.2s-0.3-0.7-0.6-0.9c-0.2-0.3-0.5-0.4-0.9-0.6s-0.7-0.2-1.1-0.2c-0.5,0-1,0.1-1.4,0.4s-0.7,0.6-1,1
					s-0.4,0.9-0.4,1.5c0,0.4,0.1,0.8,0.2,1.2s0.3,0.7,0.6,0.9c0.2,0.2,0.5,0.4,0.9,0.6S152.9,78.8,153.3,78.8L153.3,78.8z"/>
				<path class="st12" d="M158.5,82.2v-7.8h1.3v1.5l-0.2,1.3l0.2,1.3v3.6H158.5z M161.5,80c-0.4,0-0.8-0.1-1.1-0.3s-0.6-0.4-0.8-0.7
					c-0.2-0.3-0.3-0.7-0.3-1.1v-1.6c0-0.4,0.1-0.8,0.3-1.1c0.2-0.3,0.4-0.6,0.8-0.7s0.7-0.3,1.1-0.3c0.5,0,0.9,0.1,1.3,0.4
					s0.7,0.6,0.9,1s0.4,0.9,0.4,1.5s-0.1,1-0.4,1.4c-0.2,0.4-0.6,0.8-0.9,1S162,80,161.5,80L161.5,80z M161.2,78.8
					c0.3,0,0.6-0.1,0.8-0.2c0.2-0.1,0.4-0.3,0.6-0.6s0.2-0.5,0.2-0.9s-0.1-0.6-0.2-0.9c-0.1-0.2-0.3-0.4-0.6-0.6s-0.5-0.2-0.8-0.2
					s-0.6,0.1-0.8,0.2c-0.2,0.1-0.4,0.3-0.6,0.6s-0.2,0.5-0.2,0.9s0.1,0.6,0.2,0.9s0.3,0.4,0.6,0.6S160.9,78.8,161.2,78.8z"/>
				<path class="st12" d="M166.9,80c-0.3,0-0.6,0-0.9-0.1s-0.5-0.2-0.8-0.3c-0.2-0.2-0.4-0.3-0.6-0.5l0.8-0.8
					c0.2,0.2,0.4,0.4,0.7,0.5s0.5,0.2,0.8,0.2c0.3,0,0.5,0,0.6-0.1c0.1-0.1,0.2-0.2,0.2-0.4c0-0.2-0.1-0.3-0.2-0.4s-0.3-0.2-0.5-0.2
					s-0.4-0.1-0.7-0.2s-0.5-0.2-0.7-0.3c-0.2-0.1-0.4-0.3-0.5-0.5S165,76.3,165,76c0-0.3,0.1-0.7,0.2-0.9c0.2-0.2,0.4-0.4,0.7-0.6
					c0.3-0.1,0.7-0.2,1.1-0.2c0.4,0,0.8,0.1,1.2,0.2c0.3,0.2,0.6,0.4,0.9,0.7l-0.8,0.8c-0.2-0.2-0.3-0.3-0.6-0.4s-0.4-0.2-0.7-0.2
					c-0.2,0-0.4,0-0.6,0.1c-0.1,0.1-0.2,0.2-0.2,0.3c0,0.2,0.1,0.3,0.2,0.3s0.3,0.2,0.5,0.2s0.4,0.1,0.7,0.2s0.5,0.2,0.7,0.3
					c0.2,0.1,0.4,0.3,0.5,0.5s0.2,0.5,0.2,0.8c0,0.5-0.2,1-0.6,1.3S167.6,80,166.9,80L166.9,80z"/>
			</g>
		</g>
	</g>
</g>
</svg>
