<?xml version="1.0" standalone="no"?>
<!DOCTYPE svg PUBLIC "-//W3C//DTD SVG 20010904//EN"
 "http://www.w3.org/TR/2001/REC-SVG-20010904/DTD/svg10.dtd">
<svg version="1.0" xmlns="http://www.w3.org/2000/svg"
 width="50.000000pt" height="50.000000pt" viewBox="0 0 50.000000 50.000000"
 preserveAspectRatio="xMidYMid meet">

<g transform="translate(0.000000,50.000000) scale(0.100000,-0.100000)"
fill="#000000" stroke="none">
<path d="M100 486 c-14 -8 -35 -20 -46 -25 -30 -13 -58 -91 -50 -135 13 -67
85 -116 172 -116 30 0 31 -1 37 -54 3 -30 12 -67 21 -83 51 -99 196 -91 247
13 24 51 22 95 -7 139 -23 35 -65 56 -129 62 l-52 6 -6 52 c-6 63 -28 109 -62
131 -35 23 -95 28 -125 10z m74 -67 c30 -14 49 -55 44 -100 -3 -30 -7 -34 -37
-37 -98 -10 -144 80 -69 132 27 19 30 19 62 5z m210 -210 c33 -15 52 -60 36
-88 -44 -84 -140 -48 -140 53 0 18 3 36 7 39 10 11 70 8 97 -4z"/>
<path d="M130 355 c0 -32 3 -36 23 -33 17 2 22 10 22 33 0 23 -5 31 -22 33
-20 3 -23 -1 -23 -33z m35 0 c0 -10 -6 -20 -12 -22 -8 -3 -13 5 -13 22 0 17 5
25 13 23 6 -3 12 -13 12 -23z"/>
<path d="M332 148 c2 -25 8 -33 23 -33 16 0 20 7 20 30 0 24 -5 31 -23 33 -21
3 -23 0 -20 -30z m34 -14 c-5 -13 -10 -14 -18 -6 -6 6 -8 18 -4 28 5 13 10 14
18 6 6 -6 8 -18 4 -28z"/>
</g>
</svg>
