<?xml version="1.0" encoding="UTF-8"?>
<svg id="_レイヤー_2" data-name="レイヤー 2" xmlns="http://www.w3.org/2000/svg" xmlns:xlink="http://www.w3.org/1999/xlink" viewBox="0 0 501.73 85.04">
  <defs>
    <style>
      .cls-1 {
        fill: url(#_名称未設定グラデーション_57-8);
      }

      .cls-1, .cls-2, .cls-3, .cls-4, .cls-5, .cls-6, .cls-7, .cls-8, .cls-9, .cls-10, .cls-11, .cls-12, .cls-13, .cls-14 {
        stroke-width: 0px;
      }

      .cls-2 {
        fill: url(#_名称未設定グラデーション_57);
      }

      .cls-3 {
        fill: url(#_名称未設定グラデーション_52);
      }

      .cls-4 {
        fill: url(#_名称未設定グラデーション_57-9);
      }

      .cls-5 {
        fill: url(#_名称未設定グラデーション_57-10);
      }

      .cls-6 {
        fill: none;
      }

      .cls-7 {
        fill: url(#_名称未設定グラデーション_57-3);
      }

      .cls-8 {
        fill: url(#_名称未設定グラデーション_57-7);
      }

      .cls-9 {
        fill: #1a2950;
      }

      .cls-10 {
        fill: #698da9;
      }

      .cls-11 {
        fill: url(#_名称未設定グラデーション_57-2);
      }

      .cls-12 {
        fill: url(#_名称未設定グラデーション_57-6);
      }

      .cls-13 {
        fill: url(#_名称未設定グラデーション_57-5);
      }

      .cls-14 {
        fill: url(#_名称未設定グラデーション_57-4);
      }
    </style>
    <linearGradient id="_名称未設定グラデーション_57" data-name="名称未設定グラデーション 57" x1="77.83" y1="58.04" x2="110.75" y2="58.04" gradientUnits="userSpaceOnUse">
      <stop offset="0" stop-color="#040000"/>
      <stop offset="1" stop-color="#1d7996"/>
    </linearGradient>
    <linearGradient id="_名称未設定グラデーション_52" data-name="名称未設定グラデーション 52" x1="40.82" y1="27.01" x2="73.71" y2="27.01" gradientUnits="userSpaceOnUse">
      <stop offset="0" stop-color="#2696b9"/>
      <stop offset="1" stop-color="#040000"/>
    </linearGradient>
    <linearGradient id="_名称未設定グラデーション_57-2" data-name="名称未設定グラデーション 57" x1="346.21" y1="71.35" x2="346.21" y2="40.43" xlink:href="#_名称未設定グラデーション_57"/>
    <linearGradient id="_名称未設定グラデーション_57-3" data-name="名称未設定グラデーション 57" x1="379.94" y1="71.35" x2="379.94" y2="40.43" xlink:href="#_名称未設定グラデーション_57"/>
    <linearGradient id="_名称未設定グラデーション_57-4" data-name="名称未設定グラデーション 57" x1="404.9" y1="71.35" x2="404.9" y2="40.43" xlink:href="#_名称未設定グラデーション_57"/>
    <linearGradient id="_名称未設定グラデーション_57-5" data-name="名称未設定グラデーション 57" x1="417.83" y1="71.35" x2="417.83" y2="40.43" xlink:href="#_名称未設定グラデーション_57"/>
    <linearGradient id="_名称未設定グラデーション_57-6" data-name="名称未設定グラデーション 57" x1="320.52" y1="71.35" x2="320.52" y2="40.43" xlink:href="#_名称未設定グラデーション_57"/>
    <linearGradient id="_名称未設定グラデーション_57-7" data-name="名称未設定グラデーション 57" x1="467.33" y1="71.35" x2="467.33" y2="40.43" xlink:href="#_名称未設定グラデーション_57"/>
    <linearGradient id="_名称未設定グラデーション_57-8" data-name="名称未設定グラデーション 57" x1="220.16" y1="71.35" x2="220.16" y2="40.43" xlink:href="#_名称未設定グラデーション_57"/>
    <linearGradient id="_名称未設定グラデーション_57-9" data-name="名称未設定グラデーション 57" x1="248.18" y1="71.35" x2="248.18" y2="40.43" xlink:href="#_名称未設定グラデーション_57"/>
    <linearGradient id="_名称未設定グラデーション_57-10" data-name="名称未設定グラデーション 57" x1="440.74" y1="71.35" x2="440.74" y2="40.43" xlink:href="#_名称未設定グラデーション_57"/>
  </defs>
  <g id="_レイヤー_1-2" data-name="レイヤー 1">
    <g>
      <rect class="cls-6" width="501.73" height="85.04"/>
      <g>
        <g>
          <path class="cls-2" d="m83.82,66.55c4.15,2.59,8.69,4.32,13.46,4.32s9.32-1.72,13.46-4.32c-5.26-3.29-9.87-7.97-13.46-12.34-2.9-3.52-5.13-6.82-6.52-9-4.07,6.06-8.72,12.69-12.93,16.82,1.87,1.66,3.88,3.2,5.98,4.52Z"/>
          <path class="cls-3" d="m67.74,18.51c-4.15-2.59-8.69-4.32-13.46-4.32s-9.32,1.72-13.46,4.32c5.26,3.29,9.87,7.97,13.46,12.34,2.89,3.51,5.12,6.8,6.51,8.98,4.06-6.05,8.71-12.68,12.92-16.82-1.87-1.65-3.86-3.19-5.96-4.5Z"/>
          <g>
            <path class="cls-10" d="m49.24,55.61c-3.16-3.62-4.9-8.27-4.9-13.09s1.74-9.47,4.9-13.09l.71.62c-3.01,3.45-4.67,7.89-4.67,12.48s1.66,9.02,4.67,12.48l-.71.62Z"/>
            <path class="cls-10" d="m46.44,58.01c-4.15-4.11-6.44-9.61-6.44-15.48s2.29-11.37,6.44-15.49l.66.67c-3.97,3.94-6.16,9.2-6.16,14.82s2.19,10.88,6.16,14.82l-.66.67Z"/>
            <path class="cls-10" d="m43.64,60.39c-5.07-4.53-7.97-11.04-7.97-17.87s2.91-13.34,7.98-17.87l.62.7c-4.87,4.35-7.66,10.61-7.66,17.18s2.79,12.82,7.66,17.17l-.62.7Z"/>
            <path class="cls-10" d="m40.83,62.77c-6.04-5-9.5-12.38-9.5-20.25s3.47-15.25,9.51-20.25l.6.72c-5.83,4.82-9.17,11.94-9.17,19.53s3.34,14.71,9.16,19.53l-.6.72Z"/>
            <path class="cls-10" d="m38.01,65.15c-7.01-5.47-11.03-13.72-11.03-22.63s4.02-17.16,11.04-22.63l.58.74c-6.79,5.29-10.68,13.27-10.68,21.89s3.89,16.6,10.67,21.89l-.58.74Z"/>
          </g>
          <path class="cls-10" d="m101.68,55.31c2.97-3.41,4.78-7.88,4.78-12.78s-1.81-9.37-4.78-12.79c3.41-3.73,6.85-6.7,10.26-8.83l1.03-.65c6.6,5.15,10.86,13.2,10.86,22.26s-4.25,17.11-10.85,22.26l-1.04-.65c-3.41-2.13-6.85-5.1-10.26-8.83Z"/>
          <path class="cls-9" d="m97.28,14.17c-4.77,0-9.32,1.72-13.46,4.32-2.9,1.81-5.59,4.05-8.04,6.42-7.6,7.39-16.93,23.73-21.5,29.28-3.6,4.37-8.21,9.05-13.46,12.34,4.15,2.59,8.69,4.32,13.46,4.32s9.32-1.72,13.46-4.32c2.9-1.81,5.59-4.05,8.04-6.42,7.6-7.39,16.93-23.73,21.5-29.28,3.6-4.37,8.21-9.05,13.46-12.34-4.15-2.59-8.69-4.32-13.46-4.32Z"/>
        </g>
        <g>
          <path class="cls-9" d="m176.06,24.32c9.32,0,16.9,7.58,16.9,16.9s-7.58,16.9-16.9,16.9-16.9-7.58-16.9-16.9,7.58-16.9,16.9-16.9m0-6.37c-12.85,0-23.26,10.42-23.26,23.26s10.42,23.26,23.26,23.26,23.26-10.42,23.26-23.26-10.42-23.26-23.26-23.26h0Z"/>
          <path class="cls-11" d="m346.21,37.95c5.81,0,10.53,4.72,10.53,10.53s-4.72,10.53-10.53,10.53-10.53-4.72-10.53-10.53,4.72-10.53,10.53-10.53m0-5.39c-8.79,0-15.92,7.13-15.92,15.92s7.13,15.92,15.92,15.92,15.92-7.13,15.92-15.92-7.13-15.92-15.92-15.92h0Z"/>
          <path class="cls-7" d="m366.73,45.65c0-1.72.3-3.34.9-4.87.6-1.52,1.5-2.95,2.71-4.29,1.25-1.29,2.71-2.27,4.38-2.93,1.68-.67,3.59-1,5.74-1,.34,0,.72.02,1.13.06.41.04.85.11,1.32.19.47.09.96.19,1.45.32.49.13,1,.3,1.51.52.9.39,1.76.88,2.58,1.48.82.6,1.61,1.33,2.38,2.19.77.82,1.35,1.83,1.74,3.03.39,1.2.58,2.58.58,4.12v19.91h-6.12v-18.24c0-.94-.14-1.88-.42-2.8-.28-.92-.7-1.79-1.26-2.61-.56-.86-1.29-1.5-2.19-1.93-.9-.43-1.98-.64-3.22-.64-1.16,0-2.18.19-3.06.58-.88.39-1.64.97-2.29,1.74-.64.77-1.15,1.6-1.51,2.48-.37.88-.61,1.82-.74,2.8v18.62h-5.61v-18.75Z"/>
          <path class="cls-14" d="m399.39,34.12v-11.36h6.09v11.36h4.93v6.09h-4.93v24.18h-6.09v-24.18h0v-6.09h0Z"/>
          <g>
            <path class="cls-9" d="m417.8,31.08c1.14,0,2.12-.4,2.94-1.2.82-.8,1.23-1.79,1.23-2.95s-.41-2.15-1.23-2.95c-.82-.8-1.8-1.2-2.94-1.2s-2.1.4-2.91,1.2c-.82.8-1.23,1.79-1.23,2.95s.41,2.15,1.23,2.95c.82.8,1.79,1.2,2.91,1.2Z"/>
            <rect class="cls-13" x="414.86" y="34.12" width="5.93" height="30.27"/>
          </g>
          <path class="cls-9" d="m279.75,33.62c0-3.19.41-5.83,1.23-7.93.82-2.1,2.05-3.64,3.68-4.61,1.64-1.02,3.35-1.77,5.14-2.26,1.79-.49,5.42-.73,7.36-.73l9.91-.13v5.77h-9.91c-1.46.09-4.01.3-5.21.63s-2.26.81-3.19,1.43c-.93.62-1.63,1.52-2.09,2.69-.46,1.17-.7,2.6-.7,4.28v5.58h21.09v5.77h-21.09v20.38h-6.24v-30.86Z"/>
          <path class="cls-12" d="m319.35,37.54c2.33-3.16,5.2-4.82,8.6-4.98v6.49c-2.27.12-4.08.86-5.43,2.2-2.03,2.01-3.09,4.41-3.17,7.18v15.96h-6.25v-31.05h6.25v4.19Z"/>
          <path class="cls-8" d="m466.15,37.54c2.33-3.16,5.2-4.82,8.6-4.98v6.49c-2.27.12-4.08.86-5.43,2.2-2.03,2.01-3.09,4.41-3.17,7.18v15.96h-6.25v-31.05h6.25v4.19Z"/>
          <path class="cls-1" d="m220.16,32.56c-4.04,0-7.72,1.52-10.53,4v-4h-5.39v38.3h5.39v-10.47c2.81,2.48,6.49,4,10.53,4,8.79,0,15.92-7.13,15.92-15.92s-7.13-15.92-15.92-15.92Zm0,26.45c-5.81,0-10.53-4.72-10.53-10.53s4.72-10.53,10.53-10.53,10.53,4.72,10.53,10.53-4.72,10.53-10.53,10.53Z"/>
          <path class="cls-4" d="m239.67,56.7v-1.77h5.39v2.12c0,2.21,1.14,3.01,2.96,3.01s2.96-.8,2.96-3.1c0-2.56-1.14-4.2-4.87-6.99-4.77-3.58-6.33-6.1-6.33-9.64,0-4.86,2.96-7.69,8.5-7.69s8.3,2.83,8.3,7.78v1.28h-5.39v-1.59c0-2.21-1.04-3.05-2.85-3.05s-2.85.84-2.85,2.96c0,2.26,1.19,3.89,4.93,6.68,4.77,3.58,6.27,6.06,6.27,9.9,0,5.04-3.01,7.87-8.61,7.87s-8.4-2.83-8.4-7.78Z"/>
          <path class="cls-6" d="m442.26,38.51c-2.74,0-5.08.97-7.02,2.92s-2.92,4.3-2.92,7.05c0,2.25.25,3.71.75,4.38l13.57-13.6c-.65-.5-2.11-.75-4.38-.75Z"/>
          <path class="cls-5" d="m450.7,53.91c-.68.82-1.15,1.36-1.37,1.61-1.95,1.94-4.31,2.9-7.06,2.9-2.55,0-4.31-.43-5.28-1.28l15.22-15.22,2.9-2.93c-.88-.99-1.41-1.57-1.59-1.76-.45-.45-.9-.87-1.37-1.26-2.83-2.27-6.13-3.41-9.89-3.41-4.38,0-8.12,1.55-11.23,4.66-3.11,3.11-4.66,6.86-4.66,11.25s1.55,8.14,4.66,11.25c3.11,3.11,6.85,4.66,11.23,4.66s8.14-1.55,11.25-4.66c.34-.34.81-.89,1.38-1.63l-4.2-4.2Zm-18.38-5.43c0-2.75.97-5.11,2.92-7.05s4.29-2.92,7.02-2.92c2.27,0,3.73.25,4.38.75l-13.57,13.6c-.5-.67-.75-2.13-.75-4.38Z"/>
        </g>
      </g>
    </g>
  </g>
</svg>