<?xml version="1.0" encoding="UTF-8"?>
<svg id="_レイヤー_2" data-name="レイヤー 2" xmlns="http://www.w3.org/2000/svg" viewBox="0 0 290.42 65.2">
  <defs>
    <style>
      .cls-1 {
        fill: none;
      }

      .cls-1, .cls-2 {
        stroke-width: 0px;
      }

      .cls-2 {
        fill: #fff;
      }
    </style>
  </defs>
  <g id="_レイヤー_1-2" data-name="レイヤー 1">
    <g>
      <rect class="cls-1" width="290.42" height="65.2"/>
      <g>
        <g>
          <path class="cls-2" d="m49.04,46.43c2.39,1.49,5,2.49,7.75,2.49s5.36-.99,7.75-2.49c-3.03-1.89-5.68-4.59-7.75-7.1-1.67-2.02-2.95-3.92-3.75-5.18-2.34,3.49-5.02,7.31-7.44,9.68,1.08.95,2.23,1.84,3.44,2.6Z"/>
          <path class="cls-2" d="m39.79,18.78c-2.39-1.49-5-2.49-7.75-2.49s-5.36.99-7.75,2.49c3.03,1.89,5.68,4.59,7.75,7.1,1.66,2.02,2.95,3.91,3.75,5.17,2.34-3.49,5.01-7.3,7.44-9.68-1.08-.95-2.22-1.84-3.43-2.59Z"/>
          <g>
            <path class="cls-2" d="m29.14,40.14c-1.82-2.09-2.82-4.76-2.82-7.54s1-5.45,2.82-7.54l.41.35c-1.73,1.99-2.69,4.54-2.69,7.18s.95,5.19,2.69,7.18l-.41.35Z"/>
            <path class="cls-2" d="m27.52,41.51c-2.39-2.37-3.71-5.53-3.71-8.91s1.32-6.55,3.71-8.92l.38.38c-2.29,2.27-3.55,5.3-3.55,8.53s1.26,6.26,3.55,8.53l-.38.38Z"/>
            <path class="cls-2" d="m25.91,42.89c-2.92-2.61-4.59-6.36-4.59-10.29s1.67-7.68,4.59-10.29l.36.4c-2.8,2.51-4.41,6.11-4.41,9.89s1.61,7.38,4.41,9.89l-.36.4Z"/>
            <path class="cls-2" d="m24.29,44.26c-3.48-2.88-5.47-7.13-5.47-11.66s2-8.78,5.47-11.66l.34.42c-3.35,2.78-5.28,6.87-5.28,11.24s1.92,8.47,5.28,11.24l-.34.42Z"/>
            <path class="cls-2" d="m22.67,45.63c-4.04-3.15-6.35-7.9-6.35-13.03s2.32-9.88,6.35-13.03l.33.43c-3.91,3.05-6.15,7.64-6.15,12.6s2.24,9.56,6.14,12.6l-.33.43Z"/>
          </g>
          <path class="cls-2" d="m59.32,39.96c1.71-1.96,2.75-4.54,2.75-7.36,0-2.82-1.04-5.4-2.75-7.36,1.96-2.15,3.94-3.86,5.91-5.08l.59-.37c3.8,2.96,6.25,7.6,6.25,12.82s-2.45,9.85-6.25,12.81l-.6-.37c-1.96-1.23-3.94-2.93-5.9-5.08Z"/>
          <path class="cls-2" d="m56.79,16.28c-2.75,0-5.36.99-7.75,2.49-1.67,1.04-3.22,2.33-4.63,3.7-4.38,4.25-9.75,13.66-12.38,16.85-2.07,2.51-4.72,5.21-7.75,7.1,2.39,1.49,5,2.49,7.75,2.49s5.36-.99,7.75-2.49c1.67-1.04,3.22-2.33,4.63-3.7,4.38-4.25,9.75-13.66,12.38-16.85,2.07-2.51,4.72-5.21,7.75-7.1-2.39-1.49-5-2.49-7.75-2.49Z"/>
        </g>
        <g>
          <path class="cls-2" d="m102.15,22.12c5.36,0,9.73,4.36,9.73,9.73s-4.36,9.73-9.73,9.73-9.73-4.36-9.73-9.73,4.36-9.73,9.73-9.73m0-3.67c-7.4,0-13.39,6-13.39,13.39s6,13.39,13.39,13.39,13.39-6,13.39-13.39-6-13.39-13.39-13.39h0Z"/>
          <path class="cls-2" d="m200.09,29.97c3.34,0,6.06,2.72,6.06,6.06s-2.72,6.06-6.06,6.06-6.06-2.72-6.06-6.06,2.72-6.06,6.06-6.06m0-3.1c-5.06,0-9.16,4.1-9.16,9.16s4.1,9.16,9.16,9.16,9.16-4.1,9.16-9.16-4.1-9.16-9.16-9.16h0Z"/>
          <path class="cls-2" d="m211.91,34.4c0-.99.17-1.92.52-2.8.35-.88.87-1.7,1.56-2.47.72-.74,1.56-1.3,2.52-1.69.96-.38,2.06-.58,3.3-.58.2,0,.41.01.65.04.23.02.49.06.76.11.27.05.55.11.83.19.28.07.58.17.87.3.52.22,1.01.51,1.48.85.47.35.93.77,1.37,1.26.45.47.78,1.05,1,1.74.22.69.33,1.48.33,2.37v11.46h-3.52v-10.5c0-.54-.08-1.08-.24-1.61-.16-.53-.4-1.03-.72-1.5-.32-.49-.74-.87-1.26-1.11-.52-.25-1.14-.37-1.85-.37-.67,0-1.26.11-1.76.33-.51.22-.95.56-1.32,1-.37.45-.66.92-.87,1.43-.21.51-.35,1.04-.43,1.61v10.72h-3.23v-10.8Z"/>
          <path class="cls-2" d="m230.71,27.77v-6.54h3.51v6.54h2.84v3.51h-2.84v13.92h-3.51v-13.92h0v-3.51h0Z"/>
          <path class="cls-2" d="m243,21.92c.47.46.71,1.03.71,1.7s-.24,1.24-.71,1.7c-.47.46-1.04.69-1.69.69s-1.21-.23-1.68-.69c-.47-.46-.71-1.03-.71-1.7s.24-1.24.71-1.7c.47-.46,1.03-.69,1.68-.69s1.22.23,1.69.69Zm.03,5.84v17.43h-3.42v-17.43h3.42Z"/>
          <path class="cls-2" d="m161.84,27.47c0-1.83.24-3.36.71-4.57.47-1.21,1.18-2.09,2.12-2.66.94-.59,1.93-1.02,2.96-1.3,1.03-.28,3.12-.42,4.24-.42l5.71-.08v3.32h-5.71c-.84.05-2.31.17-3,.36s-1.3.46-1.83.82c-.53.36-.94.87-1.2,1.55-.27.68-.4,1.5-.4,2.46v3.21h12.14v3.32h-12.14v11.73h-3.59v-17.77Z"/>
          <path class="cls-2" d="m184.63,29.73c1.34-1.82,2.99-2.77,4.95-2.87v3.73c-1.31.07-2.35.49-3.13,1.27-1.17,1.16-1.78,2.54-1.82,4.13v9.19h-3.6v-17.88h3.6v2.41Z"/>
          <path class="cls-2" d="m269.14,29.73c1.34-1.82,2.99-2.77,4.95-2.87v3.73c-1.31.07-2.35.49-3.13,1.27-1.17,1.16-1.78,2.54-1.82,4.13v9.19h-3.6v-17.88h3.6v2.41Z"/>
          <path class="cls-2" d="m127.53,26.87c-2.33,0-4.45.87-6.06,2.3v-2.3h-3.1v22.05h3.1v-6.03c1.62,1.43,3.73,2.3,6.06,2.3,5.06,0,9.16-4.1,9.16-9.16s-4.1-9.16-9.16-9.16Zm0,15.23c-3.34,0-6.06-2.72-6.06-6.06s2.72-6.06,6.06-6.06,6.06,2.72,6.06,6.06-2.72,6.06-6.06,6.06Z"/>
          <path class="cls-2" d="m138.76,40.76v-1.02h3.1v1.22c0,1.27.66,1.73,1.7,1.73s1.7-.46,1.7-1.78c0-1.48-.66-2.42-2.81-4.02-2.75-2.06-3.64-3.51-3.64-5.55,0-2.8,1.7-4.43,4.9-4.43s4.78,1.63,4.78,4.48v.74h-3.1v-.92c0-1.27-.6-1.76-1.64-1.76s-1.64.48-1.64,1.71c0,1.3.69,2.24,2.84,3.84,2.75,2.06,3.61,3.49,3.61,5.7,0,2.9-1.73,4.53-4.96,4.53s-4.84-1.63-4.84-4.48Z"/>
          <path class="cls-2" d="m260.25,39.16c-.39.47-.66.78-.79.92-1.13,1.11-2.48,1.67-4.07,1.67-1.47,0-2.48-.25-3.04-.74l8.76-8.76,1.67-1.69c-.5-.57-.81-.91-.92-1.01-.26-.26-.52-.5-.79-.72-1.63-1.31-3.53-1.96-5.69-1.96-2.52,0-4.67.89-6.46,2.68-1.79,1.79-2.68,3.95-2.68,6.48s.89,4.69,2.68,6.48c1.79,1.79,3.94,2.68,6.46,2.68s4.69-.89,6.48-2.68c.2-.2.47-.51.8-.94l-2.42-2.42Zm-10.58-3.13c0-1.59.56-2.94,1.68-4.06s2.47-1.68,4.04-1.68c1.31,0,2.15.14,2.52.43l-7.81,7.83c-.29-.39-.43-1.23-.43-2.52Z"/>
        </g>
      </g>
    </g>
  </g>
</svg>