<?xml version="1.0" encoding="utf-8"?>
<!-- Generator: Adobe Illustrator 27.9.5, SVG Export Plug-In . SVG Version: 9.03 Build 54986)  -->
<svg version="1.1" id="_レイヤー_2" xmlns="http://www.w3.org/2000/svg" xmlns:xlink="http://www.w3.org/1999/xlink" x="0px"
	 y="0px" viewBox="0 0 210 149.3" style="enable-background:new 0 0 210 149.3;" xml:space="preserve">
<style type="text/css">
	.st0{fill:none;}
	.st1{fill:#0F6389;}
	.st2{fill:#0C785F;}
	.st3{fill:url(#SVGID_1_);}
	.st4{fill:url(#SVGID_00000067238584264167096090000011216369377745162408_);}
	.st5{fill-rule:evenodd;clip-rule:evenodd;fill:url(#SVGID_00000070835224401837050100000013959531767398126513_);}
	.st6{fill:#FFFFFF;}
	.st7{fill-rule:evenodd;clip-rule:evenodd;fill:url(#SVGID_00000052089217605856338970000001944032181356715904_);}
	.st8{fill-rule:evenodd;clip-rule:evenodd;fill:#FFFFFF;}
	.st9{fill-rule:evenodd;clip-rule:evenodd;fill:url(#SVGID_00000153684056573912975120000018390789902713444024_);}
	.st10{fill:url(#SVGID_00000120520566139025567470000014222908227595282848_);}
	.st11{fill-rule:evenodd;clip-rule:evenodd;fill:url(#SVGID_00000075137830843909962160000001385668881972569021_);}
	.st12{fill-rule:evenodd;clip-rule:evenodd;fill:url(#SVGID_00000088819508582445530640000003361989174033528491_);}
	.st13{fill-rule:evenodd;clip-rule:evenodd;fill:url(#SVGID_00000058561973505101333890000004029817177310862764_);}
	.st14{fill-rule:evenodd;clip-rule:evenodd;fill:url(#SVGID_00000168102778785515977980000001502598485300869793_);}
	.st15{fill-rule:evenodd;clip-rule:evenodd;fill:url(#SVGID_00000157289950531884217100000016034754298413222290_);}
	.st16{fill-rule:evenodd;clip-rule:evenodd;fill:url(#SVGID_00000088133416278985005210000004123726237295345033_);}
	.st17{fill-rule:evenodd;clip-rule:evenodd;fill:url(#SVGID_00000131354809183275419370000004070001174440958393_);}
	.st18{fill-rule:evenodd;clip-rule:evenodd;fill:url(#SVGID_00000080890807831988028220000018055889628975795842_);}
	.st19{fill-rule:evenodd;clip-rule:evenodd;fill:url(#SVGID_00000144333325477227357530000008146277084631345832_);}
	.st20{fill-rule:evenodd;clip-rule:evenodd;fill:url(#SVGID_00000043420209291494667220000007691503458995262143_);}
	.st21{fill-rule:evenodd;clip-rule:evenodd;fill:url(#SVGID_00000028312818244003156810000005870440923393526960_);}
	.st22{fill-rule:evenodd;clip-rule:evenodd;fill:url(#SVGID_00000113311027857488248090000014602894092160268429_);}
	.st23{fill:url(#SVGID_00000089538119263370218590000004699465673835074193_);}
	.st24{fill-rule:evenodd;clip-rule:evenodd;fill:url(#SVGID_00000038389485881614955560000007988931559864999861_);}
	.st25{fill-rule:evenodd;clip-rule:evenodd;fill:url(#SVGID_00000021825506256155393990000005978148117687472575_);}
	.st26{fill-rule:evenodd;clip-rule:evenodd;fill:url(#SVGID_00000043450610786955462870000007827530114720896170_);}
	.st27{fill-rule:evenodd;clip-rule:evenodd;fill:url(#SVGID_00000165925362770726515380000016343128077187268774_);}
	.st28{fill-rule:evenodd;clip-rule:evenodd;fill:url(#SVGID_00000076598221563752145750000006451834564556082080_);}
	.st29{fill-rule:evenodd;clip-rule:evenodd;fill:url(#SVGID_00000052808034983277539910000013226107672258854056_);}
	.st30{fill-rule:evenodd;clip-rule:evenodd;fill:url(#SVGID_00000164514640524960134920000007036245754305461388_);}
	.st31{fill-rule:evenodd;clip-rule:evenodd;fill:url(#SVGID_00000072263270654184965410000004726727059664312468_);}
	.st32{fill-rule:evenodd;clip-rule:evenodd;fill:url(#SVGID_00000067201324597319060240000000360439172130099640_);}
	.st33{fill-rule:evenodd;clip-rule:evenodd;fill:#16284D;}
	.st34{fill:url(#SVGID_00000112632505419624300350000015696639604303726503_);}
	.st35{fill:url(#SVGID_00000056395698662931246670000015850677856890201512_);}
	.st36{fill:url(#SVGID_00000078745951858367180270000008413225671965832120_);}
	.st37{fill:url(#SVGID_00000016796858191330382450000018093014426143353783_);}
	.st38{fill:url(#SVGID_00000167353807742263605610000009674610712793390777_);}
	.st39{fill:url(#SVGID_00000147179465706892446420000009411685796203867583_);}
	.st40{fill:url(#SVGID_00000016795798605048732840000009377984337130778543_);}
	.st41{fill:url(#SVGID_00000072242117506807244450000004856838953574521506_);}
</style>
<pattern  y="149.3" width="38.8" height="38.8" patternUnits="userSpaceOnUse" id="_新規パターンスウォッチ_4" viewBox="0 -38.8 38.8 38.8" style="overflow:visible;">
	<g>
		<rect y="-38.8" class="st0" width="38.8" height="38.8"/>
		<g>
			<rect y="-38.8" class="st0" width="38.8" height="38.8"/>
			<rect y="-38.8" class="st1" width="38.8" height="38.8"/>
		</g>
	</g>
</pattern>
<pattern  y="149.3" width="38.8" height="38.8" patternUnits="userSpaceOnUse" id="_新規パターンスウォッチ_7" viewBox="0 -38.8 38.8 38.8" style="overflow:visible;">
	<g>
		<rect y="-38.8" class="st0" width="38.8" height="38.8"/>
		<g>
			<rect y="-38.8" class="st0" width="38.8" height="38.8"/>
			<rect y="-38.8" class="st2" width="38.8" height="38.8"/>
		</g>
	</g>
</pattern>
<g id="_レイヤー_1-2">
	<g>
		<rect y="0" class="st0" width="210" height="149.3"/>
		<g>
			
				<pattern  id="SVGID_1_" xlink:href="#_譁ｰ隕上ヱ繧ｿ繝ｼ繝ｳ繧ｹ繧ｦ繧ｩ繝メ_4" patternTransform="matrix(1 0 0 -1 0.51 -15361.9102)">
			</pattern>
			<path class="st3" d="M162.2,92.2l0-1l1.5,0l0,1L162.2,92.2z M160.2,92.2l-1.5-0.1l0.1-1l1.5,0.1L160.2,92.2z M165.8,92l-0.1-1
				l1.5-0.2l0.1,1L165.8,92z M156.7,91.9l-1.5-0.2l0.1-1l1.5,0.2L156.7,91.9L156.7,91.9z M169.3,91.6l-0.2-1l1.5-0.3l0.2,1
				L169.3,91.6L169.3,91.6z M153.2,91.4l-1.5-0.3l0.2-1l1.5,0.3L153.2,91.4L153.2,91.4z M172.7,90.8l-0.3-1l1.4-0.4l0.3,1
				L172.7,90.8L172.7,90.8z M149.7,90.5l-1.4-0.4l0.3-1l1.4,0.4L149.7,90.5z M176.1,89.8l-0.3-0.9l1.4-0.5l0.4,0.9L176.1,89.8
				L176.1,89.8z M146.4,89.4l-1.4-0.6l0.4-0.9l1.4,0.6L146.4,89.4L146.4,89.4z M179.4,88.5l-0.4-0.9l1.4-0.6l0.4,0.9L179.4,88.5
				L179.4,88.5z M143.1,88l-1.4-0.7l0.4-0.9l1.3,0.7L143.1,88L143.1,88z M182.6,87l-0.5-0.9l1.3-0.7l0.5,0.9L182.6,87L182.6,87z
				 M140,86.4l-1.3-0.8l0.5-0.8l1.3,0.8L140,86.4L140,86.4z M185.6,85.2l-0.6-0.8l1.2-0.8l0.6,0.8L185.6,85.2z M137,84.5l-1.2-0.9
				l0.6-0.8l1.2,0.9L137,84.5L137,84.5z M188.5,83.1l-0.6-0.8l1.2-0.9l0.6,0.8L188.5,83.1L188.5,83.1z M134.1,82.4l-1.1-1l0.6-0.8
				l1.1,1C134.8,81.6,134.1,82.4,134.1,82.4z M191.2,80.8l-0.7-0.7l1.1-1l0.7,0.7L191.2,80.8L191.2,80.8z M131.5,80l-1.1-1.1
				l0.7-0.7l1.1,1.1C132.2,79.3,131.5,80,131.5,80z M193.7,78.4l-0.7-0.7l1-1.1l0.7,0.7L193.7,78.4L193.7,78.4z M129,77.5l-1-1.1
				l0.8-0.7l1,1.1L129,77.5z M196,75.7l-0.8-0.6l0.9-1.2l0.8,0.6L196,75.7L196,75.7z M126.8,74.7l-0.9-1.2l0.8-0.6l0.9,1.2
				L126.8,74.7L126.8,74.7z M198.1,72.8l-0.8-0.6l0.8-1.2l0.8,0.5L198.1,72.8L198.1,72.8z M124.8,71.8l-0.8-1.3l0.9-0.5l0.8,1.3
				L124.8,71.8L124.8,71.8z M200,69.8l-0.9-0.5l0.7-1.3l0.9,0.5L200,69.8z M123,68.8l-0.7-1.3l0.9-0.4l0.7,1.3L123,68.8L123,68.8z
				 M201.6,66.6l-0.9-0.4l0.6-1.4l0.9,0.4C202.2,65.3,201.6,66.6,201.6,66.6z M121.5,65.6l-0.6-1.4l0.9-0.4l0.6,1.4L121.5,65.6
				L121.5,65.6z M202.9,63.4L202,63l0.5-1.4l0.9,0.3L202.9,63.4L202.9,63.4z M120.3,62.3l-0.4-1.4l1-0.3l0.4,1.4
				C121.2,62,120.3,62.3,120.3,62.3z M204,60l-1-0.2l0.4-1.5l1,0.2L204,60z M119.3,58.9l-0.3-1.5l1-0.2l0.3,1.5L119.3,58.9
				L119.3,58.9z M204.8,56.5l-1-0.2l0.2-1.5l1,0.2L204.8,56.5L204.8,56.5z M118.6,55.4l-0.2-1.5l1-0.1l0.2,1.5L118.6,55.4
				L118.6,55.4z M205.3,53l-1-0.1l0.1-1.5l1,0.1L205.3,53z M118.2,51.9l-0.1-1.5l1,0l0.1,1.5C119.2,51.8,118.2,51.9,118.2,51.9z
				 M205.5,49.5h-1V48h1V49.5z M119.1,48.4h-1l0-1.5l1,0L119.1,48.4z M204.5,47.3l-0.1-1.5l1,0l0.1,1.5L204.5,47.3L204.5,47.3z
				 M119.2,44.9l-1-0.1l0.2-1.5l1,0.1L119.2,44.9L119.2,44.9z M204.3,43.8l-0.2-1.5l1-0.1l0.2,1.5L204.3,43.8z M119.6,41.5l-1-0.2
				l0.3-1.5l1,0.2L119.6,41.5L119.6,41.5z M203.8,40.4l-0.3-1.5l1-0.2l0.3,1.5C204.7,40.2,203.8,40.4,203.8,40.4z M120.3,38.1
				l-1-0.2l0.4-1.5l1,0.3L120.3,38.1L120.3,38.1z M203,37.1l-0.4-1.4l1-0.3l0.4,1.4L203,37.1L203,37.1z M121.3,34.8l-0.9-0.3
				l0.5-1.4l0.9,0.3L121.3,34.8z M201.9,33.8l-0.5-1.4l0.9-0.4l0.5,1.4L201.9,33.8L201.9,33.8z M122.5,31.6l-0.9-0.4l0.6-1.4
				l0.9,0.4L122.5,31.6z M200.6,30.6l-0.6-1.3l0.9-0.4l0.7,1.4L200.6,30.6L200.6,30.6z M124,28.4l-0.9-0.5l0.7-1.3l0.9,0.5L124,28.4
				z M199,27.5l-0.8-1.3l0.9-0.5l0.8,1.3C199.9,27,199,27.5,199,27.5z M125.8,25.5l-0.8-0.5l0.8-1.2l0.8,0.6L125.8,25.5L125.8,25.5z
				 M197.2,24.6l-0.9-1.2l0.8-0.6L198,24L197.2,24.6L197.2,24.6z M127.8,22.6L127,22l0.9-1.2l0.8,0.6L127.8,22.6L127.8,22.6z
				 M195.1,21.8l-0.9-1.1l0.8-0.6l1,1.2L195.1,21.8z M130,20l-0.7-0.7l1-1.1l0.7,0.7L130,20L130,20z M192.8,19.2l-1.1-1.1l0.7-0.7
				l1.1,1.1L192.8,19.2L192.8,19.2z M132.4,17.5l-0.7-0.7l1.1-1l0.7,0.7L132.4,17.5z M190.4,16.8l-1.1-1l0.6-0.8l1.1,1L190.4,16.8
				L190.4,16.8z M135,15.2l-0.6-0.8l1.2-0.9l0.6,0.8L135,15.2L135,15.2z M187.7,14.6l-1.2-0.9l0.6-0.8l1.2,0.9
				C188.3,13.8,187.7,14.6,187.7,14.6z M137.8,13.2l-0.6-0.8l1.3-0.8l0.5,0.8L137.8,13.2L137.8,13.2z M184.9,12.6l-1.3-0.8l0.5-0.9
				l1.3,0.8L184.9,12.6L184.9,12.6z M140.7,11.3l-0.5-0.9l1.3-0.7l0.5,0.9L140.7,11.3L140.7,11.3z M181.9,10.8l-1.3-0.7l0.4-0.9
				l1.3,0.7L181.9,10.8L181.9,10.8z M143.8,9.8l-0.4-0.9l1.4-0.6l0.4,0.9L143.8,9.8L143.8,9.8z M178.8,9.3l-1.4-0.6l0.4-0.9l1.4,0.6
				C179.2,8.4,178.8,9.3,178.8,9.3z M147,8.4l-0.3-0.9L148,7l0.3,0.9L147,8.4L147,8.4z M175.6,8.1l-1.4-0.5l0.3-0.9l1.4,0.5
				L175.6,8.1L175.6,8.1z M150.3,7.4l-0.3-1l1.5-0.4l0.2,1L150.3,7.4L150.3,7.4z M172.3,7.1l-1.5-0.3l0.2-1l1.5,0.3L172.3,7.1
				L172.3,7.1z M153.6,6.6l-0.2-1l1.5-0.3l0.2,1L153.6,6.6L153.6,6.6z M168.9,6.4l-1.5-0.2l0.1-1l1.5,0.2L168.9,6.4L168.9,6.4z
				 M157,6l-0.1-1l1.5-0.1l0.1,1L157,6L157,6z M165.4,5.9l-1.5-0.1l0.1-1l1.5,0.1L165.4,5.9L165.4,5.9z M160.5,5.8l0-1l1.5,0v1
				L160.5,5.8L160.5,5.8z"/>
			
				<pattern  id="SVGID_00000170980723221125111150000006281494071495120294_" xlink:href="#_譁ｰ隕上ヱ繧ｿ繝ｼ繝ｳ繧ｹ繧ｦ繧ｩ繝メ_7" patternTransform="matrix(1 0 0 -1 0.51 -15361.9102)">
			</pattern>
			<path style="fill:url(#SVGID_00000170980723221125111150000006281494071495120294_);" d="M48.7,92.2l0-1l1.5,0l0,1
				C50.2,92.2,48.7,92.2,48.7,92.2z M46.6,92.2l-1.5-0.1l0.1-1l1.5,0.1C46.7,91.2,46.6,92.2,46.6,92.2z M52.2,92l-0.1-1l1.5-0.2
				l0.1,1L52.2,92z M43.1,91.9l-1.5-0.2l0.1-1l1.5,0.2L43.1,91.9L43.1,91.9z M55.7,91.6l-0.2-1l1.5-0.3l0.2,1L55.7,91.6z M39.6,91.4
				L38.1,91l0.2-1l1.5,0.3L39.6,91.4z M59.2,90.8l-0.3-1l1.4-0.4l0.3,1L59.2,90.8z M36.2,90.5l-1.4-0.4l0.3-0.9l1.4,0.4L36.2,90.5
				L36.2,90.5z M62.5,89.8l-0.3-0.9l1.4-0.5l0.3,0.9L62.5,89.8L62.5,89.8z M32.8,89.4l-1.4-0.6l0.4-0.9l1.4,0.6L32.8,89.4L32.8,89.4
				z M65.8,88.5l-0.4-0.9l1.3-0.6l0.4,0.9L65.8,88.5L65.8,88.5z M29.5,88l-1.4-0.7l0.5-0.9l1.3,0.7C30,87.1,29.5,88,29.5,88z M69,87
				l-0.5-0.9l1.3-0.7l0.5,0.9L69,87L69,87z M26.4,86.4l-1.3-0.8l0.5-0.9l1.3,0.8C26.9,85.5,26.4,86.4,26.4,86.4z M72.1,85.2
				l-0.6-0.8l1.2-0.8l0.6,0.8L72.1,85.2z M23.4,84.5l-1.2-0.9l0.6-0.8l1.2,0.9L23.4,84.5L23.4,84.5z M75,83.1l-0.6-0.8l1.2-0.9
				l0.6,0.8L75,83.1L75,83.1z M20.6,82.4l-1.1-1l0.6-0.8l1.1,1C21.2,81.6,20.6,82.4,20.6,82.4z M77.7,80.8L77,80.1l1.1-1l0.7,0.7
				L77.7,80.8z M17.9,80L16.9,79l0.7-0.7l1.1,1.1C18.6,79.3,17.9,80,17.9,80z M80.2,78.4l-0.7-0.7l1-1.1l0.8,0.7L80.2,78.4
				L80.2,78.4z M15.5,77.5l-1-1.1l0.8-0.7l1,1.1L15.5,77.5L15.5,77.5z M82.5,75.7l-0.8-0.6l0.9-1.2l0.8,0.6
				C83.4,74.5,82.5,75.7,82.5,75.7z M13.3,74.7l-0.9-1.2l0.8-0.6l0.9,1.2C14.1,74.2,13.3,74.7,13.3,74.7z M84.6,72.8l-0.8-0.6
				l0.8-1.2l0.8,0.5C85.4,71.6,84.6,72.8,84.6,72.8z M11.3,71.8l-0.8-1.3l0.9-0.5l0.8,1.3L11.3,71.8L11.3,71.8z M86.4,69.8l-0.9-0.5
				l0.7-1.3l0.9,0.5L86.4,69.8z M9.5,68.8l-0.7-1.3L9.7,67l0.7,1.3L9.5,68.8L9.5,68.8z M88,66.6l-0.9-0.4l0.6-1.4l0.9,0.4L88,66.6
				L88,66.6z M8,65.6l-0.6-1.4l0.9-0.4l0.6,1.4L8,65.6L8,65.6z M89.4,63.4L88.4,63l0.5-1.4l0.9,0.3L89.4,63.4z M6.7,62.3l-0.4-1.4
				l1-0.3L7.7,62L6.7,62.3L6.7,62.3z M90.4,60l-1-0.2l0.4-1.5l1,0.2L90.4,60z M5.8,58.9l-0.3-1.5l1-0.2l0.3,1.5L5.8,58.9L5.8,58.9z
				 M91.2,56.5l-1-0.2l0.2-1.5l1,0.2L91.2,56.5z M5,55.4l-0.2-1.5l1-0.1L6,55.3L5,55.4L5,55.4z M91.7,53l-1-0.1l0.1-1.5l1,0.1
				L91.7,53z M4.6,51.9l-0.1-1.5l1-0.1l0.1,1.5L4.6,51.9L4.6,51.9z M92,49.5h-1V48h1V49.5z M5.5,48.4h-1l0-1.5l1,0L5.5,48.4z
				 M91,47.3l-0.1-1.5l1,0l0.1,1.5L91,47.3z M5.7,44.9l-1-0.1l0.2-1.5l1,0.1L5.7,44.9L5.7,44.9z M90.7,43.8l-0.2-1.5l1-0.1l0.2,1.5
				L90.7,43.8L90.7,43.8z M6.1,41.5l-1-0.2l0.3-1.5l1,0.2L6.1,41.5z M90.2,40.4L89.9,39l1-0.2l0.3,1.5
				C91.2,40.2,90.2,40.4,90.2,40.4z M6.8,38.1l-1-0.2l0.4-1.5l1,0.3L6.8,38.1L6.8,38.1z M89.4,37L89,35.6l1-0.3l0.4,1.5L89.4,37
				L89.4,37z M7.8,34.8l-0.9-0.3L7.3,33l0.9,0.3L7.8,34.8L7.8,34.8z M88.4,33.8l-0.5-1.4l0.9-0.4l0.5,1.4L88.4,33.8z M9,31.5
				l-0.9-0.4l0.6-1.4l0.9,0.4L9,31.5z M87,30.6l-0.7-1.3l0.9-0.4l0.7,1.4L87,30.6L87,30.6z M10.5,28.4l-0.9-0.5l0.7-1.3l0.9,0.5
				L10.5,28.4L10.5,28.4z M85.5,27.5l-0.8-1.3l0.9-0.5l0.8,1.3C86.3,27,85.5,27.5,85.5,27.5z M12.3,25.4l-0.8-0.5l0.8-1.2l0.8,0.6
				L12.3,25.4L12.3,25.4z M83.6,24.6l-0.9-1.2l0.8-0.6l0.9,1.2L83.6,24.6z M14.2,22.6L13.5,22l0.9-1.2l0.8,0.6
				C15.2,21.4,14.2,22.6,14.2,22.6z M81.6,21.8l-1-1.1l0.8-0.6l1,1.2L81.6,21.8z M16.4,19.9l-0.7-0.7l1-1.1l0.7,0.7L16.4,19.9
				L16.4,19.9z M79.3,19.2l-1-1.1l0.7-0.7l1.1,1.1L79.3,19.2L79.3,19.2z M18.9,17.5l-0.7-0.7l1.1-1l0.7,0.7L18.9,17.5z M76.9,16.8
				l-1.1-1l0.7-0.8l1.1,1L76.9,16.8z M21.5,15.2l-0.6-0.8l1.2-0.9l0.6,0.8L21.5,15.2L21.5,15.2z M74.2,14.5L73,13.7l0.6-0.8l1.2,0.9
				C74.8,13.7,74.2,14.5,74.2,14.5z M24.2,13.1l-0.5-0.8l1.3-0.8l0.5,0.8L24.2,13.1L24.2,13.1z M71.4,12.6l-1.3-0.8l0.5-0.9l1.3,0.8
				L71.4,12.6z M27.2,11.3l-0.5-0.9L28,9.7l0.5,0.9L27.2,11.3L27.2,11.3z M68.4,10.8l-1.3-0.7l0.4-0.9l1.3,0.7L68.4,10.8L68.4,10.8z
				 M30.3,9.7l-0.4-0.9l1.4-0.6l0.4,0.9L30.3,9.7L30.3,9.7z M65.3,9.3l-1.4-0.6l0.4-0.9l1.4,0.6C65.7,8.4,65.3,9.3,65.3,9.3z
				 M33.4,8.4l-0.3-0.9L34.5,7l0.3,0.9C34.9,7.9,33.4,8.4,33.4,8.4z M62,8l-1.4-0.5l0.3-0.9l1.4,0.5L62,8L62,8z M36.7,7.3l-0.3-1
				L37.9,6l0.2,1L36.7,7.3z M58.7,7l-1.5-0.3l0.2-1L59,6.1L58.7,7L58.7,7z M40.1,6.5l-0.2-1l1.5-0.3l0.2,1L40.1,6.5L40.1,6.5z
				 M55.4,6.3l-1.5-0.2l0.1-1l1.5,0.2L55.4,6.3L55.4,6.3z M43.5,6l-0.1-1l1.5-0.1l0.1,1L43.5,6z M51.9,5.9l-1.5-0.1l0.1-1L52,4.9
				L51.9,5.9z M47,5.8l0-1l1.5,0v1C48.5,5.7,47,5.8,47,5.8z"/>
			<g>
				<g>
					
						<radialGradient id="SVGID_00000183957204726459961740000011595738737914957457_" cx="-381.7485" cy="23.45" r="7.000000e-02" gradientTransform="matrix(390.65 0 0 461.24 149235.2344 -10704.2832)" gradientUnits="userSpaceOnUse">
						<stop  offset="0" style="stop-color:#19779A"/>
						<stop  offset="1" style="stop-color:#1A2855"/>
					</radialGradient>
					<path style="fill-rule:evenodd;clip-rule:evenodd;fill:url(#SVGID_00000183957204726459961740000011595738737914957457_);" d="
						M79.2,97L105,83.5L130.9,97c0,19.8-1.5,38.2-25.8,47.6l-0.1-0.1C80.7,135.1,79.2,116.7,79.2,97L79.2,97L79.2,97z"/>
					<path class="st6" d="M105,88.5l21.5,11.2c-0.1,8.1-0.6,16.4-3.5,23.4c-3.2,7.6-8.9,13-18,16.9c-9.1-3.9-14.9-9.3-18-16.9
						c-2.9-6.9-3.4-15.2-3.4-23.3L105,88.5 M105,83.5L79.2,97c0,19.8,1.5,38.1,25.7,47.6l0.1,0.1c24.3-9.4,25.9-27.8,25.9-47.6
						L105,83.5L105,83.5L105,83.5z"/>
				</g>
				
					<linearGradient id="SVGID_00000026885320714503125500000013935831705322598038_" gradientUnits="userSpaceOnUse" x1="-381.5556" y1="23.274" x2="-381.4156" y2="23.274" gradientTransform="matrix(486.77 0 0 574.72 185793.1562 -13261.9766)">
					<stop  offset="0" style="stop-color:#00515E"/>
					<stop  offset="1" style="stop-color:#1A2855"/>
				</linearGradient>
				<path style="fill-rule:evenodd;clip-rule:evenodd;fill:url(#SVGID_00000026885320714503125500000013935831705322598038_);" d="
					M79.2,97L105,83.5L130.9,97c0,19.8-1.5,38.2-25.8,47.6l-0.1-0.1C80.7,135.1,79.2,116.7,79.2,97L79.2,97L79.2,97z M105,141
					c-20.7-8.6-22.4-24.7-22.5-42l0,0L105,87.3L127.5,99C127.4,116.3,125.7,132.4,105,141L105,141z"/>
				<path class="st8" d="M99.3,114.4V106c0-3.1,2.5-5.7,5.7-5.7s5.7,2.5,5.7,5.7v8.4h-1.9V106c0-2.1-1.7-3.8-3.8-3.8
					s-3.8,1.7-3.8,3.8v8.4H99.3L99.3,114.4z"/>
				<path class="st8" d="M96.5,110.6h16.9c0.2,0,0.4,0.2,0.4,0.5v13c0,0.3-0.2,0.5-0.4,0.5H96.5c-0.2,0-0.4-0.2-0.4-0.5v-13
					C96.1,110.8,96.3,110.6,96.5,110.6z"/>
				
					<linearGradient id="SVGID_00000137820074858753637630000009240082724825050527_" gradientUnits="userSpaceOnUse" x1="102.74" y1="32.3153" x2="107.2644" y2="32.3153" gradientTransform="matrix(1 0 0 -1 0 149.8898)">
					<stop  offset="0" style="stop-color:#00515E"/>
					<stop  offset="1" style="stop-color:#1A2855"/>
				</linearGradient>
				<path style="fill-rule:evenodd;clip-rule:evenodd;fill:url(#SVGID_00000137820074858753637630000009240082724825050527_);" d="
					M104.2,118.7c-1-0.4-1.6-1.4-1.3-2.6c0.2-0.9,0.9-1.6,1.8-1.7c1.4-0.3,2.7,0.8,2.7,2.2c0,0.9-0.6,1.8-1.4,2.1v1.3
					c0,0.5-0.4,0.9-0.9,0.9l0,0c-0.5,0-0.9-0.4-0.9-0.9L104.2,118.7L104.2,118.7L104.2,118.7z"/>
			</g>
			<g>
				
					<linearGradient id="SVGID_00000124863455300290378270000007035261079943922619_" gradientUnits="userSpaceOnUse" x1="134.93" y1="114.1998" x2="159.04" y2="114.1998" gradientTransform="matrix(1 0 0 -1 0 149.8898)">
					<stop  offset="0" style="stop-color:#19779A"/>
					<stop  offset="1" style="stop-color:#0F6389"/>
				</linearGradient>
				<path style="fill:url(#SVGID_00000124863455300290378270000007035261079943922619_);" d="M135.3,22.2h23.3
					c0.2,0,0.4,0.2,0.4,0.4v26.1c0,0.2-0.2,0.4-0.4,0.4h-23.3c-0.2,0-0.4-0.2-0.4-0.4V22.7C134.9,22.4,135.1,22.2,135.3,22.2z"/>
				<g>
					<path class="st6" d="M136.8,23.9h20.3c0.2,0,0.4,0.2,0.4,0.4v5.8c0,0.2-0.2,0.4-0.4,0.4h-20.3c-0.2,0-0.4-0.2-0.4-0.4v-5.8
						C136.4,24,136.6,23.9,136.8,23.9z"/>
					
						<linearGradient id="SVGID_00000060028098110015181010000014358118132563699089_" gradientUnits="userSpaceOnUse" x1="137.47" y1="122.7048" x2="150.65" y2="122.7048" gradientTransform="matrix(1 0 0 -1 0 149.8898)">
						<stop  offset="0" style="stop-color:#19779A"/>
						<stop  offset="1" style="stop-color:#0F6389"/>
					</linearGradient>
					<path style="fill-rule:evenodd;clip-rule:evenodd;fill:url(#SVGID_00000060028098110015181010000014358118132563699089_);" d="
						M150.4,25.4h-12.6c-0.1,0-0.3,0.1-0.3,0.3v3c0,0.1,0.1,0.3,0.3,0.3h12.6c0.1,0,0.3-0.1,0.3-0.3v-3
						C150.7,25.6,150.5,25.4,150.4,25.4z M144.5,27.5h-5.9v-0.6h5.9V27.5z"/>
					
						<linearGradient id="SVGID_00000000922043596656593370000011580309438668380292_" gradientUnits="userSpaceOnUse" x1="153.67" y1="122.6998" x2="155.97" y2="122.6998" gradientTransform="matrix(1 0 0 -1 0 149.8898)">
						<stop  offset="0" style="stop-color:#19779A"/>
						<stop  offset="1" style="stop-color:#0F6389"/>
					</linearGradient>
					<path style="fill-rule:evenodd;clip-rule:evenodd;fill:url(#SVGID_00000000922043596656593370000011580309438668380292_);" d="
						M154.8,26c0.6,0,1.1,0.5,1.1,1.1s-0.5,1.1-1.1,1.1s-1.1-0.5-1.1-1.1S154.2,26,154.8,26L154.8,26z"/>
				</g>
				<g>
					<path class="st6" d="M136.8,32.2h20.3c0.2,0,0.4,0.2,0.4,0.4v5.8c0,0.2-0.2,0.4-0.4,0.4h-20.3c-0.2,0-0.4-0.2-0.4-0.4v-5.8
						C136.4,32.4,136.6,32.2,136.8,32.2z"/>
					
						<linearGradient id="SVGID_00000008149729749739706650000010574955384750880701_" gradientUnits="userSpaceOnUse" x1="137.47" y1="114.2948" x2="150.65" y2="114.2948" gradientTransform="matrix(1 0 0 -1 0 149.8898)">
						<stop  offset="0" style="stop-color:#19779A"/>
						<stop  offset="1" style="stop-color:#0F6389"/>
					</linearGradient>
					<path style="fill-rule:evenodd;clip-rule:evenodd;fill:url(#SVGID_00000008149729749739706650000010574955384750880701_);" d="
						M150.4,33.8h-12.6c-0.1,0-0.3,0.1-0.3,0.3v3c0,0.2,0.1,0.3,0.3,0.3h12.6c0.1,0,0.3-0.1,0.3-0.3v-3
						C150.7,34,150.5,33.8,150.4,33.8z M144.5,35.9h-5.9v-0.7h5.9V35.9z"/>
					
						<linearGradient id="SVGID_00000034061815828752953210000010212749996557727627_" gradientUnits="userSpaceOnUse" x1="153.67" y1="114.2998" x2="155.97" y2="114.2998" gradientTransform="matrix(1 0 0 -1 0 149.8898)">
						<stop  offset="0" style="stop-color:#19779A"/>
						<stop  offset="1" style="stop-color:#0F6389"/>
					</linearGradient>
					<path style="fill-rule:evenodd;clip-rule:evenodd;fill:url(#SVGID_00000034061815828752953210000010212749996557727627_);" d="
						M154.8,34.4c0.6,0,1.1,0.5,1.1,1.2s-0.5,1.2-1.1,1.2s-1.1-0.5-1.1-1.2S154.2,34.4,154.8,34.4L154.8,34.4z"/>
				</g>
				<g>
					<path class="st6" d="M136.8,40.7h20.3c0.2,0,0.4,0.2,0.4,0.4v5.8c0,0.2-0.2,0.4-0.4,0.4h-20.3c-0.2,0-0.4-0.2-0.4-0.4v-5.8
						C136.4,40.8,136.6,40.7,136.8,40.7z"/>
					
						<linearGradient id="SVGID_00000141431690368171268150000014047780029625074355_" gradientUnits="userSpaceOnUse" x1="137.47" y1="105.8948" x2="150.65" y2="105.8948" gradientTransform="matrix(1 0 0 -1 0 149.8898)">
						<stop  offset="0" style="stop-color:#19779A"/>
						<stop  offset="1" style="stop-color:#0F6389"/>
					</linearGradient>
					<path style="fill-rule:evenodd;clip-rule:evenodd;fill:url(#SVGID_00000141431690368171268150000014047780029625074355_);" d="
						M150.4,42.2h-12.6c-0.1,0-0.3,0.1-0.3,0.3v3c0,0.2,0.1,0.3,0.3,0.3h12.6c0.1,0,0.3-0.1,0.3-0.3v-3
						C150.7,42.4,150.5,42.2,150.4,42.2z M144.5,44.3h-5.9v-0.7h5.9V44.3z"/>
					
						<linearGradient id="SVGID_00000155840022512252483350000013086224250182417284_" gradientUnits="userSpaceOnUse" x1="153.67" y1="105.8998" x2="155.97" y2="105.8998" gradientTransform="matrix(1 0 0 -1 0 149.8898)">
						<stop  offset="0" style="stop-color:#19779A"/>
						<stop  offset="1" style="stop-color:#0F6389"/>
					</linearGradient>
					<path style="fill-rule:evenodd;clip-rule:evenodd;fill:url(#SVGID_00000155840022512252483350000013086224250182417284_);" d="
						M154.8,42.8c0.6,0,1.1,0.5,1.1,1.2s-0.5,1.2-1.1,1.2s-1.1-0.5-1.1-1.2S154.2,42.8,154.8,42.8L154.8,42.8z"/>
				</g>
			</g>
			<g>
				
					<linearGradient id="SVGID_00000123406375004187406730000001997480845918616250_" gradientUnits="userSpaceOnUse" x1="149.54" y1="89.5598" x2="171.48" y2="89.5598" gradientTransform="matrix(1 0 0 -1 0 149.8898)">
					<stop  offset="0" style="stop-color:#19779A"/>
					<stop  offset="1" style="stop-color:#0F6389"/>
				</linearGradient>
				<path style="fill-rule:evenodd;clip-rule:evenodd;fill:url(#SVGID_00000123406375004187406730000001997480845918616250_);" d="
					M149.5,60.3c0,0.7,1.2,1.5,3,2c2.1,0.6,4.9,1,7.9,1s5.8-0.3,7.9-1c1.9-0.6,3-1.3,3-2s-1.2-1.5-3-2c-2.1-0.6-4.9-1-7.9-1
					s-5.8,0.3-7.9,1C150.7,58.9,149.5,59.7,149.5,60.3z"/>
				
					<linearGradient id="SVGID_00000075146568255287591320000012020748865952743353_" gradientUnits="userSpaceOnUse" x1="149.61" y1="83.9748" x2="171.53" y2="83.9748" gradientTransform="matrix(1 0 0 -1 0 149.8898)">
					<stop  offset="0" style="stop-color:#19779A"/>
					<stop  offset="1" style="stop-color:#0F6389"/>
				</linearGradient>
				<path style="fill-rule:evenodd;clip-rule:evenodd;fill:url(#SVGID_00000075146568255287591320000012020748865952743353_);" d="
					M171.5,61.7c-1.9,1.5-6.5,2.4-11,2.4s-9.1-0.8-11-2.4v5.4c0,0.7,1.2,1.5,3,2c2.1,0.6,4.9,1,7.9,1s5.8-0.3,7.9-1
					c1.9-0.6,3-1.3,3-2L171.5,61.7L171.5,61.7L171.5,61.7z"/>
				
					<linearGradient id="SVGID_00000031927085285312485800000014581091585540218502_" gradientUnits="userSpaceOnUse" x1="149.55" y1="76.8548" x2="171.47" y2="76.8548" gradientTransform="matrix(1 0 0 -1 0 149.8898)">
					<stop  offset="0" style="stop-color:#19779A"/>
					<stop  offset="1" style="stop-color:#0F6389"/>
				</linearGradient>
				<path style="fill-rule:evenodd;clip-rule:evenodd;fill:url(#SVGID_00000031927085285312485800000014581091585540218502_);" d="
					M171.5,68.8c-1.9,1.5-6.5,2.4-11,2.4s-9.1-0.8-11-2.4v5.4c0,0.7,1.2,1.5,3,2c2.1,0.6,4.9,1,7.9,1s5.8-0.3,7.9-1
					c1.9-0.6,3-1.3,3-2L171.5,68.8L171.5,68.8L171.5,68.8z"/>
				
					<linearGradient id="SVGID_00000109724940376867861410000000106264641313211808_" gradientUnits="userSpaceOnUse" x1="149.55" y1="69.9248" x2="171.47" y2="69.9248" gradientTransform="matrix(1 0 0 -1 0 149.8898)">
					<stop  offset="0" style="stop-color:#19779A"/>
					<stop  offset="1" style="stop-color:#0F6389"/>
				</linearGradient>
				<path style="fill-rule:evenodd;clip-rule:evenodd;fill:url(#SVGID_00000109724940376867861410000000106264641313211808_);" d="
					M171.5,75.8c-1.9,1.5-6.5,2.4-11,2.4s-9.1-0.8-11-2.4v5.4c0,0.7,1.2,1.5,3,2c2.1,0.6,4.9,1,7.9,1s5.8-0.3,7.9-1
					c1.9-0.6,3-1.3,3-2L171.5,75.8L171.5,75.8L171.5,75.8z"/>
				
					<linearGradient id="SVGID_00000134928292283180007970000012908616714920884889_" gradientUnits="userSpaceOnUse" x1="176.09" y1="89.0448" x2="182.5" y2="89.0448" gradientTransform="matrix(1 0 0 -1 0 149.8898)">
					<stop  offset="0" style="stop-color:#19779A"/>
					<stop  offset="1" style="stop-color:#0F6389"/>
				</linearGradient>
				<path style="fill-rule:evenodd;clip-rule:evenodd;fill:url(#SVGID_00000134928292283180007970000012908616714920884889_);" d="
					M178.9,58.7h-2.6c-0.1,0-0.2,0.1-0.2,0.2v4c0,0.1,0.1,0.2,0.2,0.2h6c0.1,0,0.2-0.1,0.2-0.2v-3.2c0-0.1-0.1-0.2-0.2-0.2h-2.4"/>
				
					<linearGradient id="SVGID_00000093867677151959493720000015004656761044106387_" gradientUnits="userSpaceOnUse" x1="175.37" y1="77.5048" x2="181.79" y2="77.5048" gradientTransform="matrix(1 0 0 -1 0 149.8898)">
					<stop  offset="0" style="stop-color:#19779A"/>
					<stop  offset="1" style="stop-color:#0F6389"/>
				</linearGradient>
				<path style="fill-rule:evenodd;clip-rule:evenodd;fill:url(#SVGID_00000093867677151959493720000015004656761044106387_);" d="
					M178.2,70.2h-2.6c-0.1,0-0.2,0.1-0.2,0.2v4c0,0.1,0.1,0.2,0.2,0.2h6c0.1,0,0.2-0.1,0.2-0.2v-3.2c0-0.1-0.1-0.2-0.2-0.2h-2.4"/>
				
					<linearGradient id="SVGID_00000145044870136521768990000002128372015755348102_" gradientUnits="userSpaceOnUse" x1="172.34" y1="77.6548" x2="174.79" y2="77.6548" gradientTransform="matrix(1 0 0 -1 0 149.8898)">
					<stop  offset="0" style="stop-color:#19779A"/>
					<stop  offset="1" style="stop-color:#0F6389"/>
				</linearGradient>
				
					<rect x="172.3" y="71.8" style="fill:url(#SVGID_00000145044870136521768990000002128372015755348102_);" width="2.4" height="0.9"/>
				
					<linearGradient id="SVGID_00000049218415815065540670000001932348767178767546_" gradientUnits="userSpaceOnUse" x1="172.34" y1="84.5098" x2="179.74" y2="84.5098" gradientTransform="matrix(1 0 0 -1 0 149.8898)">
					<stop  offset="0" style="stop-color:#19779A"/>
					<stop  offset="1" style="stop-color:#0F6389"/>
				</linearGradient>
				<path style="fill-rule:evenodd;clip-rule:evenodd;fill:url(#SVGID_00000049218415815065540670000001932348767178767546_);" d="
					M178.9,63.5V65c0,0.8-0.6,1.4-1.4,1.4h-5.1v0.9h5.1c1.3,0,2.3-1,2.3-2.3v-1.5L178.9,63.5L178.9,63.5z"/>
			</g>
			<g>
				
					<linearGradient id="SVGID_00000011722559195134267750000001374932352200222353_" gradientUnits="userSpaceOnUse" x1="33.62" y1="72.9498" x2="62.85" y2="72.9498" gradientTransform="matrix(1 0 0 -1 0 149.8898)">
					<stop  offset="0" style="stop-color:#16787D"/>
					<stop  offset="1" style="stop-color:#0C785F"/>
				</linearGradient>
				<path style="fill-rule:evenodd;clip-rule:evenodd;fill:url(#SVGID_00000011722559195134267750000001374932352200222353_);" d="
					M62.8,77.7v-2.3H33.6v2.3c0,0.5,0.4,0.9,0.9,0.9h27.4C62.4,78.6,62.8,78.2,62.8,77.7L62.8,77.7L62.8,77.7z"/>
				
					<linearGradient id="SVGID_00000005255566807630239410000008508970258933051545_" gradientUnits="userSpaceOnUse" x1="44.26" y1="69.4248" x2="52.21" y2="69.4248" gradientTransform="matrix(1 0 0 -1 0 149.8898)">
					<stop  offset="0" style="stop-color:#16787D"/>
					<stop  offset="1" style="stop-color:#0C785F"/>
				</linearGradient>
				
					<polygon style="fill-rule:evenodd;clip-rule:evenodd;fill:url(#SVGID_00000005255566807630239410000008508970258933051545_);" points="
					51.7,79.3 44.8,79.3 44.3,81.6 52.2,81.6 				"/>
				
					<linearGradient id="SVGID_00000155847416690417733420000018259248852382438037_" gradientUnits="userSpaceOnUse" x1="40.21" y1="66.6198" x2="56.24" y2="66.6198" gradientTransform="matrix(1 0 0 -1 0 149.8898)">
					<stop  offset="0" style="stop-color:#16787D"/>
					<stop  offset="1" style="stop-color:#0C785F"/>
				</linearGradient>
				<path style="fill-rule:evenodd;clip-rule:evenodd;fill:url(#SVGID_00000155847416690417733420000018259248852382438037_);" d="
					M55.3,82.4H41.1c-0.5,0-0.9,0.4-0.9,0.9s0.4,0.9,0.9,0.9h14.2c0.5,0,0.9-0.4,0.9-0.9S55.8,82.4,55.3,82.4z"/>
				
					<linearGradient id="SVGID_00000098943750286477805330000009088844965693765551_" gradientUnits="userSpaceOnUse" x1="33.62" y1="83.9598" x2="62.85" y2="83.9598" gradientTransform="matrix(1 0 0 -1 0 149.8898)">
					<stop  offset="0" style="stop-color:#16787D"/>
					<stop  offset="1" style="stop-color:#0C785F"/>
				</linearGradient>
				<path style="fill-rule:evenodd;clip-rule:evenodd;fill:url(#SVGID_00000098943750286477805330000009088844965693765551_);" d="
					M33.6,74.6h29.2V58.2c0-0.5-0.4-0.9-0.9-0.9H34.5c-0.5,0-0.9,0.4-0.9,0.9L33.6,74.6L33.6,74.6z"/>
			</g>
			<g>
				
					<linearGradient id="SVGID_00000121251042650891041240000007854738255076668559_" gradientUnits="userSpaceOnUse" x1="166.54" y1="122.1348" x2="189.77" y2="122.1348" gradientTransform="matrix(1 0 0 -1 0 149.8898)">
					<stop  offset="0" style="stop-color:#19779A"/>
					<stop  offset="1" style="stop-color:#0F6389"/>
				</linearGradient>
				<path style="fill-rule:evenodd;clip-rule:evenodd;fill:url(#SVGID_00000121251042650891041240000007854738255076668559_);" d="
					M169.2,25.5l-2.6,5.5c0.1,0,0.2,0,0.4,0h22.5c0.1,0,0.3,0,0.4,0l-2.6-5.5c-0.3-0.6-0.9-1-1.5-1h-14.9
					C170.1,24.5,169.5,24.9,169.2,25.5L169.2,25.5z"/>
				
					<linearGradient id="SVGID_00000000206471069477840050000011616067990281754765_" gradientUnits="userSpaceOnUse" x1="166.14" y1="115.5698" x2="190.15" y2="115.5698" gradientTransform="matrix(1 0 0 -1 0 149.8898)">
					<stop  offset="0" style="stop-color:#19779A"/>
					<stop  offset="1" style="stop-color:#0F6389"/>
				</linearGradient>
				<path style="fill-rule:evenodd;clip-rule:evenodd;fill:url(#SVGID_00000000206471069477840050000011616067990281754765_);" d="
					M189.6,31.6h-22.9c-0.3,0-0.6,0.2-0.6,0.5v4.4c0,0.3,0.2,0.5,0.6,0.5h22.9c0.3,0,0.6-0.2,0.6-0.5v-4.4
					C190.2,31.8,189.9,31.6,189.6,31.6z M171.5,34.6h-3.1V34h3.1V34.6z M184.2,35.2c-0.5,0-0.8-0.4-0.8-0.8s0.4-0.8,0.8-0.8
					s0.8,0.4,0.8,0.8S184.6,35.2,184.2,35.2z M186.8,35.2c-0.5,0-0.8-0.4-0.8-0.8s0.4-0.8,0.8-0.8s0.8,0.4,0.8,0.8
					S187.3,35.2,186.8,35.2z"/>
				
					<linearGradient id="SVGID_00000078015513444102804150000017022132150278880672_" gradientUnits="userSpaceOnUse" x1="166.14" y1="109.5098" x2="190.15" y2="109.5098" gradientTransform="matrix(1 0 0 -1 0 149.8898)">
					<stop  offset="0" style="stop-color:#19779A"/>
					<stop  offset="1" style="stop-color:#0F6389"/>
				</linearGradient>
				<path style="fill-rule:evenodd;clip-rule:evenodd;fill:url(#SVGID_00000078015513444102804150000017022132150278880672_);" d="
					M189.6,37.6h-22.9c-0.3,0-0.6,0.2-0.6,0.5v4.4c0,0.3,0.2,0.5,0.6,0.5h22.9c0.3,0,0.6-0.2,0.6-0.5v-4.4
					C190.2,37.9,189.9,37.6,189.6,37.6z M171.5,40.7h-3.1V40h3.1V40.7z M184.2,41.2c-0.5,0-0.8-0.4-0.8-0.8s0.4-0.8,0.8-0.8
					s0.8,0.4,0.8,0.8S184.6,41.2,184.2,41.2z M186.8,41.2c-0.5,0-0.8-0.4-0.8-0.8s0.4-0.8,0.8-0.8s0.8,0.4,0.8,0.8
					S187.3,41.2,186.8,41.2z"/>
				
					<linearGradient id="SVGID_00000016067247902715776740000013933422927016260996_" gradientUnits="userSpaceOnUse" x1="166.14" y1="103.4498" x2="190.15" y2="103.4498" gradientTransform="matrix(1 0 0 -1 0 149.8898)">
					<stop  offset="0" style="stop-color:#19779A"/>
					<stop  offset="1" style="stop-color:#0F6389"/>
				</linearGradient>
				<path style="fill-rule:evenodd;clip-rule:evenodd;fill:url(#SVGID_00000016067247902715776740000013933422927016260996_);" d="
					M189.6,43.7h-22.9c-0.3,0-0.6,0.2-0.6,0.5v4.4c0,0.3,0.2,0.5,0.6,0.5h22.9c0.3,0,0.6-0.2,0.6-0.5v-4.4
					C190.2,43.9,189.9,43.7,189.6,43.7z M171.5,46.8h-3.1v-0.7h3.1V46.8z M184.2,47.3c-0.5,0-0.8-0.4-0.8-0.8s0.4-0.8,0.8-0.8
					s0.8,0.4,0.8,0.8S184.6,47.3,184.2,47.3z M186.8,47.3c-0.5,0-0.8-0.4-0.8-0.8s0.4-0.8,0.8-0.8s0.8,0.4,0.8,0.8
					S187.3,47.3,186.8,47.3z"/>
			</g>
			<g>
				<polygon class="st33" points="157.8,108.8 158.1,98.3 147.6,98.7 149,100 138.7,110.3 137.4,108.9 137.1,119.4 147.6,119.1 
					146.2,117.7 156.4,107.5 				"/>
				<polygon class="st33" points="52.2,108.8 51.9,98.3 62.4,98.7 61,100 71.3,110.3 72.6,108.9 72.9,119.4 62.5,119.1 63.8,117.7 
					53.6,107.5 				"/>
			</g>
			<g>
				
					<linearGradient id="SVGID_00000110446690502242392910000008758270881128019333_" gradientUnits="userSpaceOnUse" x1="51.701" y1="128.8448" x2="71.3334" y2="128.8448" gradientTransform="matrix(1 0 0 -1 0 149.8898)">
					<stop  offset="0" style="stop-color:#16787D"/>
					<stop  offset="1" style="stop-color:#0C785F"/>
				</linearGradient>
				<path style="fill:url(#SVGID_00000110446690502242392910000008758270881128019333_);" d="M71.2,22.2H51.8
					c-0.1,0-0.2-0.1-0.1-0.2l3-2c0,0,0,0,0.1,0h13.3c0,0,0.1,0,0.1,0l3.1,2C71.4,22,71.3,22.2,71.2,22.2L71.2,22.2z"/>
				
					<linearGradient id="SVGID_00000060028707453315057620000008776893073893608366_" gradientUnits="userSpaceOnUse" x1="51.43" y1="113.9598" x2="71.6" y2="113.9598" gradientTransform="matrix(1 0 0 -1 0 149.8898)">
					<stop  offset="0" style="stop-color:#16787D"/>
					<stop  offset="1" style="stop-color:#0C785F"/>
				</linearGradient>
				<path style="fill:url(#SVGID_00000060028707453315057620000008776893073893608366_);" d="M71.2,22.8H51.8
					c-0.2,0-0.4,0.2-0.4,0.4v25.6c0,0.2,0.2,0.4,0.4,0.4h6c0.1,0,0.2-0.1,0.2-0.2v-4.2c0-0.3,0.2-0.5,0.5-0.5h6.1
					c0.3,0,0.5,0.2,0.5,0.5v4.2c0,0.1,0.1,0.2,0.2,0.2h5.9c0.2,0,0.4-0.2,0.4-0.4V23.1C71.6,22.9,71.4,22.8,71.2,22.8L71.2,22.8z
					 M57,41.8h-2v-2h2V41.8z M57,38.3h-2v-2h2V38.3z M57,34.8h-2v-2h2V34.8z M57,31.2h-2v-2h2V31.2z M57,27.5h-2v-2h2V27.5z
					 M60.7,41.8h-2v-2h2V41.8z M60.7,38.3h-2v-2h2V38.3z M60.7,34.8h-2v-2h2V34.8z M60.7,31.2h-2v-2h2V31.2z M60.7,27.5h-2v-2h2
					V27.5z M64.4,41.8h-2v-2h2V41.8z M64.4,38.3h-2v-2h2V38.3z M64.4,34.9h-2v-2h2V34.9z M64.4,31.2h-2v-2h2V31.2z M64.4,27.5h-2v-2
					h2V27.5z M68,41.8h-2v-2h2V41.8z M68,38.3h-2v-2h2V38.3z M68,34.9h-2v-2h2V34.9z M68,31.2h-2v-2h2V31.2z M68,27.5h-2v-2h2V27.5z
					"/>
			</g>
			<g>
				
					<linearGradient id="SVGID_00000112599115403286930300000004117680194440937863_" gradientUnits="userSpaceOnUse" x1="33" y1="105.5098" x2="39.86" y2="105.5098" gradientTransform="matrix(1 0 0 -1 0 149.8898)">
					<stop  offset="0" style="stop-color:#16787D"/>
					<stop  offset="1" style="stop-color:#0C785F"/>
				</linearGradient>
				<path style="fill:url(#SVGID_00000112599115403286930300000004117680194440937863_);" d="M38.8,40.3h-5.4
					c-0.2,0-0.4,0.2-0.4,0.4v0.8c0,0.2,0.2,0.4,0.4,0.4H38c0.2,0,0.4,0.2,0.4,0.4v5.9c0,0.2,0.2,0.4,0.4,0.4h0.8
					c0.2,0,0.4-0.2,0.4-0.4v-6.7C39.9,40.8,39.4,40.3,38.8,40.3z"/>
				
					<linearGradient id="SVGID_00000144337033219329717390000003770316071853280644_" gradientUnits="userSpaceOnUse" x1="25.557" y1="116.3799" x2="29.857" y2="116.3799" gradientTransform="matrix(1 0 0 -1 0 149.8898)">
					<stop  offset="0" style="stop-color:#16787D"/>
					<stop  offset="1" style="stop-color:#0C785F"/>
				</linearGradient>
				<path style="fill:url(#SVGID_00000144337033219329717390000003770316071853280644_);" d="M27.5,35.7c1.2,0.1,2.2-0.7,2.4-1.9
					s-0.7-2.2-1.9-2.4s-2.2,0.7-2.4,1.9C25.4,34.5,26.3,35.5,27.5,35.7z"/>
				
					<linearGradient id="SVGID_00000070109962148402822890000008057719014423098775_" gradientUnits="userSpaceOnUse" x1="20.54" y1="107.1142" x2="28.5387" y2="107.1142" gradientTransform="matrix(1 0 0 -1 0 149.8898)">
					<stop  offset="0" style="stop-color:#16787D"/>
					<stop  offset="1" style="stop-color:#0C785F"/>
				</linearGradient>
				<path style="fill:url(#SVGID_00000070109962148402822890000008057719014423098775_);" d="M27.1,44.2h-2.2c-1,0-1.8-0.7-1.9-1.6
					L22,37.5c0-0.2-0.3-0.4-0.5-0.4l-0.6,0.1c-0.2,0-0.4,0.3-0.4,0.5l0.9,5.2c0.3,1.7,1.7,2.8,3.4,2.8h1.7c0.3,0,0.5,0.2,0.5,0.5V48
					c0,0.3,0.2,0.5,0.5,0.5h0.6c0.3,0,0.5-0.2,0.5-0.5v-2.3C28.5,44.9,27.9,44.2,27.1,44.2z"/>
				
					<linearGradient id="SVGID_00000150102467644958985080000012095619400626844296_" gradientUnits="userSpaceOnUse" x1="23.9754" y1="107.2779" x2="33.4654" y2="107.2779" gradientTransform="matrix(1 0 0 -1 0 149.8898)">
					<stop  offset="0" style="stop-color:#16787D"/>
					<stop  offset="1" style="stop-color:#0C785F"/>
				</linearGradient>
				<path style="fill:url(#SVGID_00000150102467644958985080000012095619400626844296_);" d="M30,41.1h-2l0.5-2.3l1.4,0.7
					c0.1,0.1,0.3,0.1,0.4,0.1c0,0,0,0,0,0l2.1-0.1c0.5,0,1-0.5,1-1s-0.5-1-1-1l-1.8,0.1c0,0-2.1-1.1-2.3-1.2
					c-0.3-0.1-1.5-0.3-1.5-0.3c-0.4-0.1-0.8,0-1.2,0.2s-0.6,0.6-0.7,1L24,41.5c-0.1,0.5,0,0.9,0.3,1.3c0.3,0.4,0.7,0.6,1.2,0.6H29
					c0.2,0,0.4,0.2,0.4,0.4v4.3c0,0.6,0.5,1.1,1.1,1.1s1.1-0.5,1.1-1.1v-5.3C31.6,41.8,30.9,41.1,30,41.1L30,41.1z"/>
				
					<linearGradient id="SVGID_00000002347643605375683920000005884653457097896126_" gradientUnits="userSpaceOnUse" x1="34.85" y1="112.4248" x2="39.76" y2="112.4248" gradientTransform="matrix(1 0 0 -1 0 149.8898)">
					<stop  offset="0" style="stop-color:#16787D"/>
					<stop  offset="1" style="stop-color:#0C785F"/>
				</linearGradient>
				<path style="fill:url(#SVGID_00000002347643605375683920000005884653457097896126_);" d="M38.6,39.4c0.2,0,0.3-0.1,0.4-0.3
					l0.8-3.4c0,0,0-0.1,0-0.1l-0.9-0.2c0,0-0.1,0-0.1,0l-0.7,2.8c0,0,0,0.1-0.1,0.1h-3.1c0,0-0.1,0-0.1,0.1v0.9c0,0,0,0.1,0.1,0.1
					C34.9,39.4,38.6,39.4,38.6,39.4z"/>
				
					<linearGradient id="SVGID_00000174585458993194725710000012582195566460375202_" gradientUnits="userSpaceOnUse" x1="16.805" y1="120.4998" x2="43.685" y2="120.4998" gradientTransform="matrix(1 0 0 -1 0 149.8898)">
					<stop  offset="0" style="stop-color:#16787D"/>
					<stop  offset="1" style="stop-color:#0C785F"/>
				</linearGradient>
				<path style="fill:url(#SVGID_00000174585458993194725710000012582195566460375202_);" d="M43.6,33.6c0.1-0.2,0.1-0.4-0.1-0.5
					l-12.9-8.7c-0.3-0.2-0.6-0.2-0.9,0L17,33.1c-0.1,0.1-0.2,0.3-0.1,0.5l0.5,0.8c0.1,0.2,0.3,0.2,0.5,0.1L30,26.2
					c0.1-0.1,0.3-0.1,0.4,0l12.2,8.3c0.2,0.1,0.4,0.1,0.5-0.1L43.6,33.6L43.6,33.6z"/>
			</g>
		</g>
	</g>
</g>
</svg>
